<?xml version="1.0" encoding="UTF-8" standalone="no"?>
<!-- Created with Inkscape (http://www.inkscape.org/) -->

<svg
   version="1.1"
   id="svg1"
   width="638.94348"
   height="171.92732"
   viewBox="0 0 638.94348 171.92733"
   sodipodi:docname="diagram.pdf"
   xmlns:inkscape="http://www.inkscape.org/namespaces/inkscape"
   xmlns:sodipodi="http://sodipodi.sourceforge.net/DTD/sodipodi-0.dtd"
   xmlns="http://www.w3.org/2000/svg"
   xmlns:svg="http://www.w3.org/2000/svg">
  <defs
     id="defs1">
    <clipPath
       clipPathUnits="userSpaceOnUse"
       id="clipPath3">
      <path
         d="M -6.5914089,41.336301 H 217.8786 v -53.15 H -6.5914089 Z"
         id="path3" />
    </clipPath>
    <clipPath
       clipPathUnits="userSpaceOnUse"
       id="clipPath69">
      <path
         d="M 0,1122.5208 H 793.76 V -0.03922133 H 0 Z"
         id="path69" />
    </clipPath>
  </defs>
  <sodipodi:namedview
     id="namedview1"
     pagecolor="#ffffff"
     bordercolor="#000000"
     borderopacity="0.25"
     inkscape:showpageshadow="2"
     inkscape:pageopacity="0.0"
     inkscape:pagecheckerboard="0"
     inkscape:deskcolor="#d1d1d1"
     showgrid="false"
     inkscape:zoom="1.5359296"
     inkscape:cx="296.56307"
     inkscape:cy="212.90039"
     inkscape:window-width="1920"
     inkscape:window-height="901"
     inkscape:window-x="0"
     inkscape:window-y="25"
     inkscape:window-maximized="0"
     inkscape:current-layer="g1">
    <inkscape:page
       x="0"
       y="0"
       width="638.94348"
       height="171.92732"
       id="page2"
       margin="0"
       bleed="0" />
  </sodipodi:namedview>
  <g
     id="g1"
     inkscape:groupmode="layer"
     inkscape:label="1"
     transform="translate(-88.847648,-96.183407)">
    <g
       id="g68"
       clip-path="url(#clipPath69)"
       transform="matrix(1.9051837,0,0,2.3216259,-141.38933,-177.4057)"
       inkscape:export-filename="diagram_from_pdf.svg"
       inkscape:export-xdpi="96"
       inkscape:export-ydpi="96">
      <g
         aria-label="Ω&#10;0&#10;(U)Ω&#10;1&#10;(U)Ω&#10;2&#10;(U)Ω&#10;3&#10;(U)&#10;C&#10;∞&#10;(U)X(U)X(U)C&#10;∞&#10;(U)"
         transform="matrix(1.5641178,0,0,1.5641155,123.66974,132.82603)"
         clip-path="url(#clipPath3)"
         id="g38">
        <path
           d="M 6.7418845,-1.6194855 H 6.4921431 C 6.4421948,-1.359754 6.4022362,-1.1299916 6.3123293,-0.89023944 6.262381,-0.7304047 6.2324121,-0.65048733 5.653012,-0.65048733 H 4.8638291 C 4.983705,-1.2099089 5.2933843,-1.6794235 5.7429189,-2.3387418 c 0.4695138,-0.7092667 0.8790898,-1.398554 0.8790898,-2.1877381 0,-1.3785746 -1.3486037,-2.4974178 -3.026866,-2.4974178 -1.7182209,0 -3.03685559,1.1388225 -3.03685559,2.4974178 0,0.7891841 0.40957592,1.4784714 0.87908979,2.1877381 0.4295552,0.6593183 0.7492242,1.1288329 0.8790898,1.68825447 H 1.5272838 c -0.57940008,0 -0.60936905,-0.0799174 -0.65931733,-0.22976244 C 0.78804922,-1.1100122 0.73810093,-1.3697437 0.68815265,-1.6194855 H 0.43841124 l 0.32965866,1.61832682 h 1.5883554 c 0.2197724,0 0.2497414,0 0.2497414,-0.2097831 0,-0.699277 -0.3096793,-1.56837842 -0.5394414,-2.20771742 -0.2097828,-0.5794009 -0.4795036,-1.368585 -0.4795036,-2.1178103 0,-1.5883578 1.0888726,-2.2676555 1.9979314,-2.2676555 0.959007,0 2.0079209,0.7192564 2.0079209,2.2676555 0,0.7492253 -0.2697207,1.5084404 -0.5594207,2.3275934 -0.1398552,0.4195662 -0.4595242,1.30864699 -0.4595242,1.99793432 0,0.2097831 0.029969,0.2097831 0.259731,0.2097831 h 1.5783658 z m 0,0"
           style="fill:#000000;fill-opacity:1;fill-rule:nonzero;stroke:none"
           id="path4" />
        <path
           d="m 10.795188,-5.8276346 c 0,-0.759215 -0.08991,-1.3186366 -0.409576,-1.7981408 -0.219773,-0.3296592 -0.6493279,-0.5993803 -1.2087487,-0.5993803 -1.6183243,0 -1.6183243,1.8980376 -1.6183243,2.3975211 0,0.5094733 0,2.3675522 1.6183243,2.3675522 1.6183247,0 1.6183247,-1.8580789 1.6183247,-2.3675522 z m -1.6183247,2.1677587 c -0.319669,0 -0.7392346,-0.179814 -0.8790897,-0.759215 -0.099897,-0.4095765 -0.099897,-0.9789878 -0.099897,-1.4984507 0,-0.5094733 0,-1.0389258 0.099897,-1.4185334 0.1498448,-0.5494319 0.5993793,-0.699277 0.8790897,-0.699277 0.379607,0 0.7392346,0.2297625 0.8690997,0.639339 0.109887,0.3696179 0.119876,0.8790911 0.119876,1.4784714 0,0.5194629 0,1.0389258 -0.08991,1.4784714 -0.1398548,0.6293493 -0.6193583,0.7791943 -0.8990687,0.7791943 z m 0,0"
           style="fill:#000000;fill-opacity:1;fill-rule:nonzero;stroke:none"
           id="path5" />
        <path
           d="m 14.9359,2.3863728 c 0,-0.029969 0,-0.049948 -0.169824,-0.2197728 -1.248707,-1.24870891 -1.558386,-3.13675681 -1.558386,-4.6551869 0,-1.7382028 0.369617,-3.466416 1.598345,-4.7151249 0.129865,-0.1198761 0.129865,-0.1398554 0.129865,-0.1698244 0,-0.069928 -0.03996,-0.099897 -0.0999,-0.099897 -0.0999,0 -0.998966,0.6792976 -1.578366,1.9479859 -0.509472,1.0888742 -0.629348,2.1977277 -0.629348,3.0368601 0,0.7791944 0.109886,1.97795497 0.659317,3.10678785 0.58939,1.21873995 1.4485,1.86806855 1.548397,1.86806855 0.05994,0 0.0999,-0.029969 0.0999,-0.099896 z m 0,0"
           style="fill:#000000;fill-opacity:1;fill-rule:nonzero;stroke:none"
           id="path6" />
        <path
           d="m 21.803789,-5.7552094 c 0.0999,-0.4095766 0.279711,-0.7092667 1.078883,-0.7392357 0.04995,0 0.169824,-0.00999 0.169824,-0.1997935 0,-0.00999 0,-0.1098864 -0.129865,-0.1098864 -0.329659,0 -0.679297,0.029969 -1.018945,0.029969 -0.339648,0 -0.709266,-0.029969 -1.038924,-0.029969 -0.05994,0 -0.179814,0 -0.179814,0.1997935 0,0.1098864 0.0999,0.1098864 0.179814,0.1098864 0.56941,0.00999 0.679296,0.2197727 0.679296,0.4395455 0,0.029969 -0.01998,0.1798141 -0.02997,0.2097831 l -0.899069,3.5563231 c -0.329659,1.32862626 -1.478469,2.19772768 -2.477435,2.19772768 -0.679296,0 -1.208748,-0.43954555 -1.208748,-1.29865728 0,-0.019979 0,-0.3296592 0.109886,-0.7692047 l 0.959007,-3.8759925 c 0.08991,-0.3596282 0.109886,-0.4595249 0.839131,-0.4595249 0.259731,0 0.339649,0 0.339649,-0.1997935 0,-0.1098864 -0.109887,-0.1098864 -0.139856,-0.1098864 -0.27971,0 -0.998965,0.029969 -1.278676,0.029969 -0.2897,0 -0.988976,-0.029969 -1.278676,-0.029969 -0.07992,0 -0.189803,0 -0.189803,0.1997935 0,0.1098864 0.08991,0.1098864 0.27971,0.1098864 0.01998,0 0.209783,0 0.379607,0.019979 0.179814,0.019979 0.259731,0.029969 0.259731,0.1598348 0,0.059938 -0.0999,0.4795042 -0.159834,0.7092666 L 16.82894,-4.736263 c -0.08991,0.3895972 -0.56941,2.2776451 -0.609369,2.4674489 -0.06993,0.2797108 -0.06993,0.4295559 -0.06993,0.5794009 0,1.20875029 0.909058,1.90802729 1.947983,1.90802729 1.258696,0 2.487424,-1.12883287 2.817083,-2.43747979 z m 0,0"
           style="fill:#000000;fill-opacity:1;fill-rule:nonzero;stroke:none"
           id="path7" />
        <path
           d="m 26.276658,-2.4885869 c 0,-0.7791944 -0.109886,-1.9879446 -0.659317,-3.1067878 -0.58939,-1.2287296 -1.448501,-1.8780582 -1.548397,-1.8780582 -0.05994,0 -0.0999,0.039959 -0.0999,0.099897 0,0.029969 0,0.049948 0.189804,0.2297624 0.968996,0.9889775 1.538407,2.5673456 1.538407,4.6551869 0,1.69824417 -0.369617,3.45642635 -1.598345,4.7051353 -0.129866,0.119876 -0.129866,0.1398554 -0.129866,0.1698244 0,0.059938 0.03996,0.099897 0.0999,0.099897 0.0999,0 0.988976,-0.6792976 1.578366,-1.93799625 0.509472,-1.09886386 0.629348,-2.20771735 0.629348,-3.03686075 z m 42.505989,0.8691014 h -0.249742 c -0.04995,0.2597315 -0.08991,0.4894939 -0.179813,0.72924606 -0.04995,0.15983474 -0.07992,0.23975211 -0.659318,0.23975211 h -0.789183 c 0.119876,-0.55942157 0.429556,-1.02893617 0.87909,-1.68825447 0.469514,-0.7092667 0.87909,-1.398554 0.87909,-2.1877381 0,-1.3785746 -1.348604,-2.4974178 -3.026866,-2.4974178 -1.718221,0 -3.036856,1.1388225 -3.036856,2.4974178 0,0.7891841 0.409576,1.4784714 0.87909,2.1877381 0.429555,0.6593183 0.749224,1.1288329 0.87909,1.68825447 h -0.789183 c -0.5794,0 -0.609369,-0.0799174 -0.659317,-0.22976244 -0.07992,-0.22976243 -0.129866,-0.48949393 -0.179814,-0.73923573 h -0.249742 l 0.329659,1.61832682 h 1.588356 c 0.219772,0 0.249741,0 0.249741,-0.2097831 0,-0.699277 -0.309679,-1.56837842 -0.539442,-2.20771742 -0.209782,-0.5794009 -0.479503,-1.368585 -0.479503,-2.1178103 0,-1.5883578 1.088873,-2.2676555 1.997931,-2.2676555 0.959007,0 2.007921,0.7192564 2.007921,2.2676555 0,0.7492253 -0.26972,1.5084404 -0.559421,2.3275934 -0.139855,0.4195662 -0.459524,1.30864699 -0.459524,1.99793432 0,0.2097831 0.02997,0.2097831 0.259731,0.2097831 h 1.578366 z m 0,0"
           style="fill:#000000;fill-opacity:1;fill-rule:nonzero;stroke:none"
           id="path8" />
        <path
           d="m 71.577253,-8.035352 c 0,-0.1898037 -0.01998,-0.1898037 -0.209783,-0.1898037 -0.449534,0.4395455 -1.078883,0.4395455 -1.368583,0.4395455 v 0.2497418 c 0.169825,0 0.629349,0 1.008956,-0.1898037 v 3.556323 c 0,0.2297624 0,0.3196695 -0.699276,0.3196695 h -0.259731 v 0.2497418 c 0.129865,-0.00999 0.978986,-0.029969 1.238717,-0.029969 0.219773,0 1.098862,0.019979 1.248707,0.029969 v -0.2497418 h -0.259731 c -0.699276,0 -0.699276,-0.089907 -0.699276,-0.3196695 z m 0,0"
           style="fill:#000000;fill-opacity:1;fill-rule:nonzero;stroke:none"
           id="path9" />
        <path
           d="m 77.096538,2.3863728 c 0,-0.029969 0,-0.049948 -0.169824,-0.2197728 -1.248707,-1.24870891 -1.558386,-3.13675681 -1.558386,-4.6551869 0,-1.7382028 0.369617,-3.466416 1.598345,-4.7151249 0.129865,-0.1198761 0.129865,-0.1398554 0.129865,-0.1698244 0,-0.069928 -0.03996,-0.099897 -0.0999,-0.099897 -0.0999,0 -0.998966,0.6792976 -1.578366,1.9479859 -0.509472,1.0888742 -0.629348,2.1977277 -0.629348,3.0368601 0,0.7791944 0.109886,1.97795497 0.659317,3.10678785 0.58939,1.21873995 1.4485,1.86806855 1.548397,1.86806855 0.05994,0 0.0999,-0.029969 0.0999,-0.099896 z m 0,0"
           style="fill:#000000;fill-opacity:1;fill-rule:nonzero;stroke:none"
           id="path10" />
        <path
           d="m 83.964427,-5.7552094 c 0.0999,-0.4095766 0.279711,-0.7092667 1.078883,-0.7392357 0.04995,0 0.169824,-0.00999 0.169824,-0.1997935 0,-0.00999 0,-0.1098864 -0.129865,-0.1098864 -0.329659,0 -0.679297,0.029969 -1.018945,0.029969 -0.339648,0 -0.709266,-0.029969 -1.038924,-0.029969 -0.05994,0 -0.179814,0 -0.179814,0.1997935 0,0.1098864 0.0999,0.1098864 0.179814,0.1098864 0.56941,0.00999 0.679296,0.2197727 0.679296,0.4395455 0,0.029969 -0.01998,0.1798141 -0.02997,0.2097831 l -0.899069,3.5563231 c -0.329658,1.32862626 -1.478469,2.19772768 -2.477435,2.19772768 -0.679296,0 -1.208748,-0.43954555 -1.208748,-1.29865728 0,-0.019979 0,-0.3296592 0.109886,-0.7692047 l 0.959007,-3.8759925 c 0.08991,-0.3596282 0.109886,-0.4595249 0.839131,-0.4595249 0.259731,0 0.339649,0 0.339649,-0.1997935 0,-0.1098864 -0.109887,-0.1098864 -0.139856,-0.1098864 -0.27971,0 -0.998965,0.029969 -1.278676,0.029969 -0.2897,0 -0.988976,-0.029969 -1.278676,-0.029969 -0.07992,0 -0.189803,0 -0.189803,0.1997935 0,0.1098864 0.08991,0.1098864 0.27971,0.1098864 0.01998,0 0.209783,0 0.379607,0.019979 0.179814,0.019979 0.259731,0.029969 0.259731,0.1598348 0,0.059938 -0.0999,0.4795042 -0.159834,0.7092666 l -0.219773,0.8691014 c -0.08991,0.3895972 -0.56941,2.2776451 -0.609369,2.4674489 -0.06993,0.2797108 -0.06993,0.4295559 -0.06993,0.5794009 0,1.20875029 0.909058,1.90802729 1.947983,1.90802729 1.258696,0 2.487424,-1.12883287 2.817083,-2.43747979 z m 0,0"
           style="fill:#000000;fill-opacity:1;fill-rule:nonzero;stroke:none"
           id="path11" />
        <path
           d="m 88.437296,-2.4885869 c 0,-0.7791944 -0.109886,-1.9879446 -0.659317,-3.1067878 -0.58939,-1.2287296 -1.4485,-1.8780582 -1.548397,-1.8780582 -0.05994,0 -0.0999,0.039959 -0.0999,0.099897 0,0.029969 0,0.049948 0.189804,0.2297624 0.968997,0.9889775 1.538407,2.5673456 1.538407,4.6551869 0,1.69824417 -0.369617,3.45642635 -1.598345,4.7051353 -0.129866,0.119876 -0.129866,0.1398554 -0.129866,0.1698244 0,0.059938 0.03996,0.099897 0.0999,0.099897 0.0999,0 0.988976,-0.6792976 1.578366,-1.93799625 0.509472,-1.09886386 0.629348,-2.20771735 0.629348,-3.03686075 z m 40.225854,0.8691014 h -0.24975 c -0.0499,0.2597315 -0.0899,0.4894939 -0.17981,0.72924606 -0.0499,0.15983474 -0.0799,0.23975211 -0.65932,0.23975211 h -0.78918 c 0.11988,-0.55942157 0.42956,-1.02893617 0.87909,-1.68825447 0.46951,-0.7092667 0.87909,-1.398554 0.87909,-2.1877381 0,-1.3785746 -1.3486,-2.4974178 -3.02687,-2.4974178 -1.71822,0 -3.03685,1.1388225 -3.03685,2.4974178 0,0.7891841 0.40957,1.4784714 0.87909,2.1877381 0.42955,0.6593183 0.74922,1.1288329 0.87909,1.68825447 h -0.78918 c -0.57941,0 -0.60937,-0.0799174 -0.65932,-0.22976244 -0.0799,-0.22976243 -0.12987,-0.48949393 -0.17982,-0.73923573 h -0.24974 l 0.32966,1.61832682 h 1.58836 c 0.21977,0 0.24974,0 0.24974,-0.2097831 0,-0.699277 -0.30968,-1.56837842 -0.53944,-2.20771742 -0.20979,-0.5794009 -0.47951,-1.368585 -0.47951,-2.1178103 0,-1.5883578 1.08888,-2.2676555 1.99793,-2.2676555 0.95901,0 2.00793,0.7192564 2.00793,2.2676555 0,0.7492253 -0.26973,1.5084404 -0.55943,2.3275934 -0.13985,0.4195662 -0.45952,1.30864699 -0.45952,1.99793432 0,0.2097831 0.03,0.2097831 0.25973,0.2097831 h 1.57837 z m 0,0"
           style="fill:#000000;fill-opacity:1;fill-rule:nonzero;stroke:none"
           id="path12" />
        <path
           d="m 132.63653,-4.8686261 h -0.22976 c -0.02,0.1498451 -0.0899,0.5694113 -0.17981,0.6293493 -0.0599,0.049948 -0.59938,0.049948 -0.68929,0.049948 H 130.249 c 0.72925,-0.6493287 0.97899,-0.8491221 1.39856,-1.1787813 0.50947,-0.4095765 0.98897,-0.8391324 0.98897,-1.4984507 0,-0.8491221 -0.72924,-1.3585953 -1.62831,-1.3585953 -0.85911,0 -1.4485,0.5993803 -1.4485,1.2387192 0,0.3596282 0.29969,0.3995869 0.36961,0.3995869 0.16983,0 0.36962,-0.1198761 0.36962,-0.3696178 0,-0.1298658 -0.0499,-0.3696179 -0.40957,-0.3696179 0.20978,-0.4994836 0.68928,-0.6493286 1.01894,-0.6493286 0.68929,0 1.0589,0.5394422 1.0589,1.1088535 0,0.5993803 -0.42955,1.0888742 -0.65931,1.338616 l -1.67826,1.6582854 c -0.0699,0.059938 -0.0699,0.069928 -0.0699,0.2697212 h 2.87702 z m 0,0"
           style="fill:#000000;fill-opacity:1;fill-rule:nonzero;stroke:none"
           id="path13" />
        <path
           d="m 136.85716,2.3863728 c 0,-0.029969 0,-0.049948 -0.16982,-0.2197728 -1.24871,-1.24870891 -1.55839,-3.13675681 -1.55839,-4.6551869 0,-1.7382028 0.36962,-3.466416 1.59835,-4.7151249 0.12986,-0.1198761 0.12986,-0.1398554 0.12986,-0.1698244 0,-0.069928 -0.04,-0.099897 -0.0999,-0.099897 -0.0999,0 -0.99897,0.6792976 -1.57837,1.9479859 -0.50947,1.0888742 -0.62935,2.1977277 -0.62935,3.0368601 0,0.7791944 0.10989,1.97795497 0.65932,3.10678785 0.58939,1.21873995 1.4485,1.86806855 1.5484,1.86806855 0.0599,0 0.0999,-0.029969 0.0999,-0.099896 z m 0,0"
           style="fill:#000000;fill-opacity:1;fill-rule:nonzero;stroke:none"
           id="path14" />
        <path
           d="m 143.72255,-5.7552094 c 0.0999,-0.4095766 0.27971,-0.7092667 1.07889,-0.7392357 0.0499,0 0.16982,-0.00999 0.16982,-0.1997935 0,-0.00999 0,-0.1098864 -0.12987,-0.1098864 -0.32965,0 -0.67929,0.029969 -1.01894,0.029969 -0.33965,0 -0.70927,-0.029969 -1.03892,-0.029969 -0.0599,0 -0.17982,0 -0.17982,0.1997935 0,0.1098864 0.0999,0.1098864 0.17982,0.1098864 0.56941,0.00999 0.67929,0.2197727 0.67929,0.4395455 0,0.029969 -0.02,0.1798141 -0.03,0.2097831 l -0.89907,3.5563231 c -0.32965,1.32862626 -1.47847,2.19772768 -2.47743,2.19772768 -0.6793,0 -1.20875,-0.43954555 -1.20875,-1.29865728 0,-0.019979 0,-0.3296592 0.10989,-0.7692047 l 0.959,-3.8759925 c 0.0899,-0.3596282 0.10989,-0.4595249 0.83914,-0.4595249 0.25973,0 0.33964,0 0.33964,-0.1997935 0,-0.1098864 -0.10988,-0.1098864 -0.13985,-0.1098864 -0.27971,0 -0.99897,0.029969 -1.27868,0.029969 -0.2897,0 -0.98897,-0.029969 -1.27867,-0.029969 -0.0799,0 -0.18981,0 -0.18981,0.1997935 0,0.1098864 0.0899,0.1098864 0.27971,0.1098864 0.02,0 0.20979,0 0.37961,0.019979 0.17981,0.019979 0.25973,0.029969 0.25973,0.1598348 0,0.059938 -0.0999,0.4795042 -0.15983,0.7092666 l -0.21978,0.8691014 c -0.0899,0.3895972 -0.56941,2.2776451 -0.60936,2.4674489 -0.0699,0.2797108 -0.0699,0.4295559 -0.0699,0.5794009 0,1.20875029 0.90906,1.90802729 1.94798,1.90802729 1.2587,0 2.48742,-1.12883287 2.81708,-2.43747979 z m 0,0"
           style="fill:#000000;fill-opacity:1;fill-rule:nonzero;stroke:none"
           id="path15" />
        <path
           d="m 148.19792,-2.4885869 c 0,-0.7791944 -0.10989,-1.9879446 -0.65932,-3.1067878 -0.58939,-1.2287296 -1.4485,-1.8780582 -1.54839,-1.8780582 -0.0599,0 -0.0999,0.039959 -0.0999,0.099897 0,0.029969 0,0.049948 0.1898,0.2297624 0.969,0.9889775 1.53841,2.5673456 1.53841,4.6551869 0,1.69824417 -0.36962,3.45642635 -1.59835,4.7051353 -0.12986,0.119876 -0.12986,0.1398554 -0.12986,0.1698244 0,0.059938 0.04,0.099897 0.0999,0.099897 0.0999,0 0.98897,-0.6792976 1.57836,-1.93799625 0.50947,-1.09886386 0.62935,-2.20771735 0.62935,-3.03686075 z m 42.50599,0.8691014 h -0.24974 c -0.0499,0.2597315 -0.0899,0.4894939 -0.17982,0.72924606 -0.0499,0.15983474 -0.0799,0.23975211 -0.65931,0.23975211 h -0.78919 c 0.11988,-0.55942157 0.42956,-1.02893617 0.87909,-1.68825447 0.46952,-0.7092667 0.87909,-1.398554 0.87909,-2.1877381 0,-1.3785746 -1.3486,-2.4974178 -3.02686,-2.4974178 -1.71822,0 -3.03686,1.1388225 -3.03686,2.4974178 0,0.7891841 0.40958,1.4784714 0.87909,2.1877381 0.42956,0.6593183 0.74922,1.1288329 0.87909,1.68825447 h -0.78918 c -0.5794,0 -0.60937,-0.0799174 -0.65932,-0.22976244 -0.0799,-0.22976243 -0.12987,-0.48949393 -0.17981,-0.73923573 h -0.24975 l 0.32966,1.61832682 h 1.58836 c 0.21977,0 0.24974,0 0.24974,-0.2097831 0,-0.699277 -0.30968,-1.56837842 -0.53944,-2.20771742 -0.20978,-0.5794009 -0.4795,-1.368585 -0.4795,-2.1178103 0,-1.5883578 1.08887,-2.2676555 1.99793,-2.2676555 0.959,0 2.00792,0.7192564 2.00792,2.2676555 0,0.7492253 -0.26972,1.5084404 -0.55942,2.3275934 -0.13986,0.4195662 -0.45953,1.30864699 -0.45953,1.99793432 0,0.2097831 0.03,0.2097831 0.25973,0.2097831 h 1.57837 z m 0,0"
           style="fill:#000000;fill-opacity:1;fill-rule:nonzero;stroke:none"
           id="path16" />
        <path
           d="m 193.06896,-5.9275313 c 0.53944,0 0.92904,0.3796075 0.92904,1.1188432 0,0.8691014 -0.49949,1.1288329 -0.90906,1.1288329 -0.27971,0 -0.88908,-0.079917 -1.17878,-0.4894939 0.31967,-0.019979 0.39959,-0.2497418 0.39959,-0.3895972 0,-0.2297624 -0.16983,-0.3895972 -0.37961,-0.3895972 -0.19979,0 -0.3896,0.1198761 -0.3896,0.4095766 0,0.6493286 0.71926,1.0788845 1.56838,1.0788845 0.96899,0 1.6383,-0.6493287 1.6383,-1.3486057 0,-0.5394422 -0.44953,-1.0888742 -1.21874,-1.2487089 0.73924,-0.2597315 0.99897,-0.7891841 0.99897,-1.2087503 0,-0.5494319 -0.62935,-0.9590084 -1.40854,-0.9590084 -0.76921,0 -1.36859,0.3696178 -1.36859,0.9290394 0,0.2397521 0.15984,0.3696179 0.36962,0.3696179 0.20978,0 0.34964,-0.1598348 0.34964,-0.3596282 0,-0.1997934 -0.13986,-0.3396488 -0.34964,-0.3596282 0.23975,-0.3096798 0.71926,-0.3796075 0.97899,-0.3796075 0.30968,0 0.74922,0.1498451 0.74922,0.759215 0,0.2897005 -0.0899,0.60937 -0.26972,0.8291428 -0.23975,0.2597314 -0.42955,0.2797108 -0.77919,0.2996901 -0.16983,0.00999 -0.18981,0.00999 -0.21977,0.019979 -0.02,0 -0.0699,0.00999 -0.0699,0.089907 0,0.099897 0.0599,0.099897 0.17981,0.099897 z m 0,0"
           style="fill:#000000;fill-opacity:1;fill-rule:nonzero;stroke:none"
           id="path17" />
        <path
           d="m 198.89543,2.3863728 c 0,-0.029969 0,-0.049948 -0.16983,-0.2197728 -1.2487,-1.24870891 -1.55838,-3.13675681 -1.55838,-4.6551869 0,-1.7382028 0.36961,-3.466416 1.59834,-4.7151249 0.12987,-0.1198761 0.12987,-0.1398554 0.12987,-0.1698244 0,-0.069928 -0.04,-0.099897 -0.0999,-0.099897 -0.0999,0 -0.99897,0.6792976 -1.57837,1.9479859 -0.50947,1.0888742 -0.62934,2.1977277 -0.62934,3.0368601 0,0.7791944 0.10988,1.97795497 0.65931,3.10678785 0.58939,1.21873995 1.4485,1.86806855 1.5484,1.86806855 0.0599,0 0.0999,-0.029969 0.0999,-0.099896 z m 0,0"
           style="fill:#000000;fill-opacity:1;fill-rule:nonzero;stroke:none"
           id="path18" />
        <path
           d="m 205.76332,-5.7552094 c 0.0999,-0.4095766 0.27971,-0.7092667 1.07888,-0.7392357 0.0499,0 0.16982,-0.00999 0.16982,-0.1997935 0,-0.00999 0,-0.1098864 -0.12986,-0.1098864 -0.32966,0 -0.6793,0.029969 -1.01895,0.029969 -0.33965,0 -0.70926,-0.029969 -1.03892,-0.029969 -0.0599,0 -0.17982,0 -0.17982,0.1997935 0,0.1098864 0.0999,0.1098864 0.17982,0.1098864 0.56941,0.00999 0.67929,0.2197727 0.67929,0.4395455 0,0.029969 -0.02,0.1798141 -0.03,0.2097831 l -0.89907,3.5563231 c -0.32966,1.32862626 -1.47847,2.19772768 -2.47744,2.19772768 -0.6793,0 -1.20875,-0.43954555 -1.20875,-1.29865728 0,-0.019979 0,-0.3296592 0.10989,-0.7692047 l 0.95901,-3.8759925 c 0.0899,-0.3596282 0.10988,-0.4595249 0.83913,-0.4595249 0.25973,0 0.33965,0 0.33965,-0.1997935 0,-0.1098864 -0.10989,-0.1098864 -0.13986,-0.1098864 -0.27971,0 -0.99897,0.029969 -1.27868,0.029969 -0.2897,0 -0.98897,-0.029969 -1.27867,-0.029969 -0.0799,0 -0.18981,0 -0.18981,0.1997935 0,0.1098864 0.0899,0.1098864 0.27972,0.1098864 0.02,0 0.20978,0 0.3796,0.019979 0.17982,0.019979 0.25973,0.029969 0.25973,0.1598348 0,0.059938 -0.0999,0.4795042 -0.15983,0.7092666 l -0.21977,0.8691014 c -0.0899,0.3895972 -0.56941,2.2776451 -0.60937,2.4674489 -0.0699,0.2797108 -0.0699,0.4295559 -0.0699,0.5794009 0,1.20875029 0.90906,1.90802729 1.94798,1.90802729 1.2587,0 2.48743,-1.12883287 2.81709,-2.43747979 z m 0,0"
           style="fill:#000000;fill-opacity:1;fill-rule:nonzero;stroke:none"
           id="path19" />
        <path
           d="m 210.23618,-2.4885869 c 0,-0.7791944 -0.10988,-1.9879446 -0.65931,-3.1067878 -0.58939,-1.2287296 -1.4485,-1.8780582 -1.5484,-1.8780582 -0.0599,0 -0.0999,0.039959 -0.0999,0.099897 0,0.029969 0,0.049948 0.18981,0.2297624 0.96899,0.9889775 1.5384,2.5673456 1.5384,4.6551869 0,1.69824417 -0.36961,3.45642635 -1.59834,4.7051353 -0.12987,0.119876 -0.12987,0.1398554 -0.12987,0.1698244 0,0.059938 0.04,0.099897 0.0999,0.099897 0.0999,0 0.98898,-0.6792976 1.57837,-1.93799625 0.50947,-1.09886386 0.62934,-2.20771735 0.62934,-3.03686075 z m 0,0"
           style="fill:#000000;fill-opacity:1;fill-rule:nonzero;stroke:none"
           id="path20" />
        <path
           d="m 5.2684102,28.357021 c 0,-0.02997 -0.019979,-0.0999 -0.1098862,-0.0999 -0.029969,0 -0.039959,0.01 -0.1498449,0.119877 L 4.3094032,29.146205 C 4.2194963,29.00635 3.7599721,28.257124 2.6611098,28.257124 c -2.22769339,0 -4.4653765,2.197728 -4.4653765,4.515332 0,1.638306 1.16878985,2.72718 2.69720731,2.72718 0.86910009,0 1.62831399,-0.399587 2.14777619,-0.859111 0.929038,-0.819154 1.0988622,-1.718224 1.0988622,-1.748193 0,-0.0999 -0.099897,-0.0999 -0.1198759,-0.0999 -0.059938,0 -0.1098862,0.01998 -0.1298655,0.0999 -0.089907,0.289701 -0.319669,0.988978 -1.0089553,1.568378 -0.6792967,0.559422 -1.308645,0.729246 -1.8281072,0.729246 -0.89906908,0 -1.94798302,-0.519462 -1.94798302,-2.067862 0,-0.569411 0.20978279,-2.187738 1.19875879,-3.346539 0.60936905,-0.709267 1.54839673,-1.208751 2.42748653,-1.208751 1.018945,0 1.6083347,0.769205 1.6083347,1.918017 0,0.399587 -0.029969,0.409577 -0.029969,0.509473 0,0.0999 0.1098862,0.0999 0.1498448,0.0999 0.1298655,0 0.1298655,-0.01998 0.1798138,-0.199793 z m 0,0"
           style="fill:#000000;fill-opacity:1;fill-rule:nonzero;stroke:none"
           id="path21" />
        <path
           d="M 9.5215065,29.77056 C 9.1518892,29.331014 9.042003,29.221128 8.7822719,29.031324 8.3527167,28.721644 7.9131718,28.601768 7.5235752,28.601768 c -0.8591105,0 -1.4884589,0.739236 -1.4884589,1.578368 0,0.819153 0.5993794,1.568379 1.4684796,1.568379 0.9689966,0 1.6482933,-0.799174 1.8980347,-1.168792 0.3696173,0.439546 0.4795035,0.559422 0.7492244,0.739236 0.419565,0.30968 0.8691,0.429556 1.248707,0.429556 0.8691,0 1.498448,-0.739236 1.498448,-1.578368 0,-0.809164 -0.599379,-1.568379 -1.478469,-1.568379 -0.968996,0 -1.6383034,0.799174 -1.8980345,1.168792 z m 0.2297621,0.259731 c 0.2797104,-0.459525 0.8790894,-1.158802 1.7382004,-1.158802 0.709265,0 1.208748,0.62935 1.208748,1.298658 0,0.669308 -0.539441,1.19876 -1.188769,1.19876 -0.649328,0 -1.088872,-0.529452 -1.7581794,-1.338616 z m -0.5694104,0.29969 c -0.2797104,0.449536 -0.8890795,1.148813 -1.7382003,1.148813 -0.7192553,0 -1.2187381,-0.62935 -1.2187381,-1.298658 0,-0.669308 0.5494311,-1.188771 1.1887691,-1.188771 0.6493277,0 1.0988623,0.529453 1.7681693,1.338616 z m 0,0"
           style="fill:#000000;fill-opacity:1;fill-rule:nonzero;stroke:none"
           id="path22" />
        <path
           d="m 17.310941,37.667395 c 0,-0.02997 0,-0.04995 -0.169824,-0.219773 -1.248707,-1.248709 -1.558386,-3.136757 -1.558386,-4.655187 0,-1.738203 0.369617,-3.466416 1.598345,-4.715125 0.129865,-0.119876 0.129865,-0.139855 0.129865,-0.169824 0,-0.06993 -0.03996,-0.0999 -0.0999,-0.0999 -0.0999,0 -0.998966,0.679298 -1.578366,1.947986 -0.509473,1.088874 -0.629348,2.197728 -0.629348,3.03686 0,0.779195 0.109886,1.977955 0.659317,3.106788 0.58939,1.21874 1.4485,1.868069 1.548397,1.868069 0.05994,0 0.0999,-0.02997 0.0999,-0.0999 z m 0,0"
           style="fill:#000000;fill-opacity:1;fill-rule:nonzero;stroke:none"
           id="path23" />
        <path
           d="m 24.17883,29.525813 c 0.0999,-0.409577 0.27971,-0.709267 1.078883,-0.739236 0.04995,0 0.169824,-0.01 0.169824,-0.199793 0,-0.01 0,-0.109887 -0.129865,-0.109887 -0.329659,0 -0.679297,0.02997 -1.018945,0.02997 -0.339649,0 -0.709266,-0.02997 -1.038925,-0.02997 -0.05994,0 -0.179813,0 -0.179813,0.199794 0,0.109886 0.0999,0.109886 0.179813,0.109886 0.569411,0.01 0.679297,0.219773 0.679297,0.439546 0,0.02997 -0.01998,0.179814 -0.02997,0.209783 l -0.899069,3.556323 c -0.329659,1.328626 -1.478469,2.197727 -2.477435,2.197727 -0.679297,0 -1.208748,-0.439545 -1.208748,-1.298657 0,-0.01998 0,-0.329659 0.109886,-0.769205 l 0.959007,-3.875992 c 0.08991,-0.359628 0.109886,-0.459525 0.839131,-0.459525 0.259731,0 0.339648,0 0.339648,-0.199793 0,-0.109887 -0.109886,-0.109887 -0.139855,-0.109887 -0.27971,0 -0.998965,0.02997 -1.278676,0.02997 -0.2897,0 -0.988976,-0.02997 -1.278676,-0.02997 -0.07992,0 -0.189803,0 -0.189803,0.199794 0,0.109886 0.08991,0.109886 0.27971,0.109886 0.01998,0 0.209783,0 0.379607,0.01998 0.179814,0.01998 0.259731,0.02997 0.259731,0.159835 0,0.05994 -0.0999,0.479504 -0.159834,0.709267 L 19.20398,30.54476 c -0.08991,0.389597 -0.56941,2.277645 -0.609369,2.467449 -0.06993,0.279711 -0.06993,0.429556 -0.06993,0.579401 0,1.20875 0.909059,1.908027 1.947984,1.908027 1.258696,0 2.487424,-1.128833 2.817083,-2.43748 z m 0,0"
           style="fill:#000000;fill-opacity:1;fill-rule:nonzero;stroke:none"
           id="path24" />
        <path
           d="m 28.651699,32.792435 c 0,-0.779194 -0.109886,-1.987944 -0.659317,-3.106787 -0.58939,-1.22873 -1.448501,-1.878059 -1.548397,-1.878059 -0.05994,0 -0.0999,0.03996 -0.0999,0.0999 0,0.02997 0,0.04995 0.189804,0.229762 0.968996,0.988978 1.538407,2.567346 1.538407,4.655187 0,1.698244 -0.369618,3.456427 -1.598345,4.705136 -0.129866,0.119876 -0.129866,0.139855 -0.129866,0.169824 0,0.05994 0.03996,0.0999 0.0999,0.0999 0.0999,0 0.988976,-0.679298 1.578365,-1.937997 0.509473,-1.098863 0.629349,-2.207717 0.629349,-3.03686 z m 0,0"
           style="fill:#000000;fill-opacity:1;fill-rule:nonzero;stroke:none"
           id="path25" />
        <path
           d="m 65.068992,30.035286 0.169824,0.149845 c 0.319669,-0.409576 0.709266,-0.819153 1.278676,-0.819153 0.569411,0 0.988976,0.669308 1.068893,1.188771 0.04995,0.359628 0.04995,0.709267 0.04995,1.068895 h -1.388563 l -0.359627,0.419566 c 0.5794,-0.07992 1.1588,-0.07992 1.74819,-0.07992 0,0.869101 -0.129866,1.778161 -0.719256,2.367552 -0.259731,0.259731 -0.609369,0.469514 -0.978986,0.469514 -0.349638,0 -0.639338,-0.219772 -0.789183,-0.529452 l -0.58939,0.689287 c 0.189804,0.29969 0.489494,0.539442 0.849121,0.539442 0.319669,0 0.669307,-0.239752 0.949018,-0.429556 0.389596,-0.259731 0.739234,-0.579401 1.068893,-0.90906 l 0.419565,-0.419566 c 0.169825,0.839133 0.649328,1.808131 1.588356,1.808131 0.109886,0 0.319669,-0.05994 0.479503,-0.109887 l 1.108852,-0.89907 v -0.219773 c -0.319669,0.219773 -0.669307,0.429556 -1.058903,0.429556 -1.378573,0 -1.638304,-1.81812 -1.638304,-2.787118 0.459524,0.01 0.929038,0.01998 1.378573,0.07992 l 0.369617,-0.419566 h -1.74819 c 0,-0.91905 0.309679,-1.967966 1.058904,-2.477439 0.109886,0.29969 0.599379,0.729246 0.949017,0.889081 l 1.018945,-0.579401 v -0.189804 c -0.139855,0.06993 -0.319669,0.159835 -0.429555,0.159835 -0.419566,0 -0.569411,-0.60937 -0.779194,-1.008957 -0.799172,0.329659 -1.478469,0.91905 -1.868065,1.728213 0,-0.01998 -0.01,-0.03996 -0.01,-0.05994 -0.109886,-0.409576 -0.229762,-0.869101 -0.529452,-1.168791 -0.309679,-0.30968 -0.759214,-0.449535 -1.198759,-0.469515 z m 0,0"
           style="fill:#000000;fill-opacity:1;fill-rule:nonzero;stroke:none"
           id="path26" />
        <path
           d="m 74.78643,37.667395 c 0,-0.02997 0,-0.04995 -0.169824,-0.219773 -1.248707,-1.248709 -1.558386,-3.136757 -1.558386,-4.655187 0,-1.738203 0.369617,-3.466416 1.598345,-4.715125 0.129865,-0.119876 0.129865,-0.139855 0.129865,-0.169824 0,-0.06993 -0.03996,-0.0999 -0.0999,-0.0999 -0.0999,0 -0.998966,0.679298 -1.578366,1.947986 -0.509472,1.088874 -0.629348,2.197728 -0.629348,3.03686 0,0.779195 0.109886,1.977955 0.659317,3.106788 0.58939,1.21874 1.4485,1.868069 1.548397,1.868069 0.05994,0 0.0999,-0.02997 0.0999,-0.0999 z m 0,0"
           style="fill:#000000;fill-opacity:1;fill-rule:nonzero;stroke:none"
           id="path27" />
        <path
           d="m 81.654319,29.525813 c 0.0999,-0.409577 0.279711,-0.709267 1.078883,-0.739236 0.04995,0 0.169824,-0.01 0.169824,-0.199793 0,-0.01 0,-0.109887 -0.129865,-0.109887 -0.329659,0 -0.679297,0.02997 -1.018945,0.02997 -0.339648,0 -0.709266,-0.02997 -1.038924,-0.02997 -0.05994,0 -0.179814,0 -0.179814,0.199794 0,0.109886 0.0999,0.109886 0.179814,0.109886 0.56941,0.01 0.679296,0.219773 0.679296,0.439546 0,0.02997 -0.01998,0.179814 -0.02997,0.209783 l -0.899069,3.556323 c -0.329659,1.328626 -1.478469,2.197727 -2.477435,2.197727 -0.679296,0 -1.208748,-0.439545 -1.208748,-1.298657 0,-0.01998 0,-0.329659 0.109886,-0.769205 l 0.959007,-3.875992 c 0.08991,-0.359628 0.109886,-0.459525 0.839131,-0.459525 0.259731,0 0.339649,0 0.339649,-0.199793 0,-0.109887 -0.109887,-0.109887 -0.139856,-0.109887 -0.27971,0 -0.998965,0.02997 -1.278676,0.02997 -0.2897,0 -0.988976,-0.02997 -1.278676,-0.02997 -0.07992,0 -0.189803,0 -0.189803,0.199794 0,0.109886 0.08991,0.109886 0.27971,0.109886 0.01998,0 0.209783,0 0.379607,0.01998 0.179814,0.01998 0.259731,0.02997 0.259731,0.159835 0,0.05994 -0.0999,0.479504 -0.159834,0.709267 l -0.219773,0.869101 c -0.08991,0.389597 -0.56941,2.277645 -0.609369,2.467449 -0.06993,0.279711 -0.06993,0.429556 -0.06993,0.579401 0,1.20875 0.909058,1.908027 1.947983,1.908027 1.258696,0 2.487424,-1.128833 2.817083,-2.43748 z m 0,0"
           style="fill:#000000;fill-opacity:1;fill-rule:nonzero;stroke:none"
           id="path28" />
        <path
           d="m 86.127188,32.792435 c 0,-0.779194 -0.109886,-1.987944 -0.659317,-3.106787 -0.58939,-1.22873 -1.448501,-1.878059 -1.548397,-1.878059 -0.05994,0 -0.0999,0.03996 -0.0999,0.0999 0,0.02997 0,0.04995 0.189804,0.229762 0.968997,0.988978 1.538407,2.567346 1.538407,4.655187 0,1.698244 -0.369617,3.456427 -1.598345,4.705136 -0.129866,0.119876 -0.129866,0.139855 -0.129866,0.169824 0,0.05994 0.03996,0.0999 0.0999,0.0999 0.0999,0 0.988976,-0.679298 1.578366,-1.937997 0.509472,-1.098863 0.629348,-2.207717 0.629348,-3.03686 z m 0,0"
           style="fill:#000000;fill-opacity:1;fill-rule:nonzero;stroke:none"
           id="path29" />
        <path
           d="m 124.94949,30.035286 0.16983,0.149845 c 0.31966,-0.409576 0.70926,-0.819153 1.27867,-0.819153 0.56941,0 0.98898,0.669308 1.06889,1.188771 0.0499,0.359628 0.0499,0.709267 0.0499,1.068895 h -1.38856 l -0.35963,0.419566 c 0.5794,-0.07992 1.1588,-0.07992 1.74819,-0.07992 0,0.869101 -0.12986,1.778161 -0.71925,2.367552 -0.25973,0.259731 -0.60937,0.469514 -0.97899,0.469514 -0.34964,0 -0.63934,-0.219772 -0.78918,-0.529452 l -0.58939,0.689287 c 0.1898,0.29969 0.48949,0.539442 0.84912,0.539442 0.31967,0 0.66931,-0.239752 0.94902,-0.429556 0.38959,-0.259731 0.73923,-0.579401 1.06889,-0.90906 l 0.41957,-0.419566 c 0.16982,0.839133 0.64932,1.808131 1.58835,1.808131 0.10989,0 0.31967,-0.05994 0.4795,-0.109887 l 1.10886,-0.89907 v -0.219773 c -0.31967,0.219773 -0.66931,0.429556 -1.05891,0.429556 -1.37857,0 -1.6383,-1.81812 -1.6383,-2.787118 0.45952,0.01 0.92904,0.01998 1.37857,0.07992 l 0.36962,-0.419566 h -1.74819 c 0,-0.91905 0.30968,-1.967966 1.0589,-2.477439 0.10989,0.29969 0.59938,0.729246 0.94902,0.889081 l 1.01894,-0.579401 v -0.189804 c -0.13985,0.06993 -0.31966,0.159835 -0.42955,0.159835 -0.41957,0 -0.56941,-0.60937 -0.77919,-1.008957 -0.79918,0.329659 -1.47847,0.91905 -1.86807,1.728213 0,-0.01998 -0.01,-0.03996 -0.01,-0.05994 -0.10989,-0.409576 -0.22976,-0.869101 -0.52945,-1.168791 -0.30968,-0.30968 -0.75921,-0.449535 -1.19876,-0.469515 z m 0,0"
           style="fill:#000000;fill-opacity:1;fill-rule:nonzero;stroke:none"
           id="path30" />
        <path
           d="m 134.66693,37.667395 c 0,-0.02997 0,-0.04995 -0.16982,-0.219773 -1.24871,-1.248709 -1.55839,-3.136757 -1.55839,-4.655187 0,-1.738203 0.36962,-3.466416 1.59834,-4.715125 0.12987,-0.119876 0.12987,-0.139855 0.12987,-0.169824 0,-0.06993 -0.04,-0.0999 -0.0999,-0.0999 -0.0999,0 -0.99896,0.679298 -1.57836,1.947986 -0.50948,1.088874 -0.62935,2.197728 -0.62935,3.03686 0,0.779195 0.10988,1.977955 0.65932,3.106788 0.58939,1.21874 1.4485,1.868069 1.54839,1.868069 0.0599,0 0.0999,-0.02997 0.0999,-0.0999 z m 0,0"
           style="fill:#000000;fill-opacity:1;fill-rule:nonzero;stroke:none"
           id="path31" />
        <path
           d="m 141.53232,29.525813 c 0.0999,-0.409577 0.27971,-0.709267 1.07888,-0.739236 0.0499,0 0.16983,-0.01 0.16983,-0.199793 0,-0.01 0,-0.109887 -0.12987,-0.109887 -0.32966,0 -0.67929,0.02997 -1.01894,0.02997 -0.33965,0 -0.70927,-0.02997 -1.03893,-0.02997 -0.0599,0 -0.17981,0 -0.17981,0.199794 0,0.109886 0.0999,0.109886 0.17981,0.109886 0.56941,0.01 0.6793,0.219773 0.6793,0.439546 0,0.02997 -0.02,0.179814 -0.03,0.209783 l -0.89907,3.556323 c -0.32966,1.328626 -1.47847,2.197727 -2.47743,2.197727 -0.6793,0 -1.20875,-0.439545 -1.20875,-1.298657 0,-0.01998 0,-0.329659 0.10988,-0.769205 l 0.95901,-3.875992 c 0.0899,-0.359628 0.10989,-0.459525 0.83913,-0.459525 0.25973,0 0.33965,0 0.33965,-0.199793 0,-0.109887 -0.10989,-0.109887 -0.13985,-0.109887 -0.27971,0 -0.99897,0.02997 -1.27868,0.02997 -0.2897,0 -0.98898,-0.02997 -1.27868,-0.02997 -0.0799,0 -0.1898,0 -0.1898,0.199794 0,0.109886 0.0899,0.109886 0.27971,0.109886 0.02,0 0.20978,0 0.37961,0.01998 0.17981,0.01998 0.25973,0.02997 0.25973,0.159835 0,0.05994 -0.0999,0.479504 -0.15984,0.709267 l -0.21977,0.869101 c -0.0899,0.389597 -0.56941,2.277645 -0.60937,2.467449 -0.0699,0.279711 -0.0699,0.429556 -0.0699,0.579401 0,1.20875 0.90905,1.908027 1.94798,1.908027 1.25869,0 2.48742,-1.128833 2.81708,-2.43748 z m 0,0"
           style="fill:#000000;fill-opacity:1;fill-rule:nonzero;stroke:none"
           id="path32" />
        <path
           d="m 146.00769,32.792435 c 0,-0.779194 -0.10989,-1.987944 -0.65932,-3.106787 -0.58939,-1.22873 -1.4485,-1.878059 -1.5484,-1.878059 -0.0599,0 -0.0999,0.03996 -0.0999,0.0999 0,0.02997 0,0.04995 0.1898,0.229762 0.969,0.988978 1.53841,2.567346 1.53841,4.655187 0,1.698244 -0.36962,3.456427 -1.59835,4.705136 -0.12986,0.119876 -0.12986,0.139855 -0.12986,0.169824 0,0.05994 0.0399,0.0999 0.0999,0.0999 0.0999,0 0.98898,-0.679298 1.57837,-1.937997 0.50947,-1.098863 0.62935,-2.207717 0.62935,-3.03686 z m 0,0"
           style="fill:#000000;fill-opacity:1;fill-rule:nonzero;stroke:none"
           id="path33" />
        <path
           d="m 189.22794,28.357021 c 0,-0.02997 -0.02,-0.0999 -0.10989,-0.0999 -0.03,0 -0.04,0.01 -0.14984,0.119877 l -0.69928,0.769204 c -0.0899,-0.139855 -0.54943,-0.889081 -1.64829,-0.889081 -2.2277,0 -4.46538,2.197728 -4.46538,4.515332 0,1.638306 1.16879,2.72718 2.69721,2.72718 0.8691,0 1.62831,-0.399587 2.14777,-0.859111 0.92904,-0.819154 1.09887,-1.718224 1.09887,-1.748193 0,-0.0999 -0.0999,-0.0999 -0.11988,-0.0999 -0.0599,0 -0.10989,0.01998 -0.12987,0.0999 -0.0899,0.289701 -0.31967,0.988978 -1.00895,1.568378 -0.6793,0.559422 -1.30865,0.729246 -1.82811,0.729246 -0.89907,0 -1.94798,-0.519462 -1.94798,-2.067862 0,-0.569411 0.20978,-2.187738 1.19876,-3.346539 0.60937,-0.709267 1.54839,-1.208751 2.42748,-1.208751 1.01895,0 1.60834,0.769205 1.60834,1.918017 0,0.399587 -0.03,0.409577 -0.03,0.509473 0,0.0999 0.10989,0.0999 0.14984,0.0999 0.12987,0 0.12987,-0.01998 0.17982,-0.199793 z m 0,0"
           style="fill:#000000;fill-opacity:1;fill-rule:nonzero;stroke:none"
           id="path34" />
        <path
           d="m 193.48103,29.77056 c -0.36961,-0.439546 -0.4795,-0.549432 -0.73923,-0.739236 -0.42956,-0.30968 -0.8691,-0.429556 -1.2587,-0.429556 -0.85911,0 -1.48846,0.739236 -1.48846,1.578368 0,0.819153 0.59938,1.568379 1.46848,1.568379 0.969,0 1.6483,-0.799174 1.89804,-1.168792 0.36961,0.439546 0.4795,0.559422 0.74922,0.739236 0.41957,0.30968 0.8691,0.429556 1.24871,0.429556 0.8691,0 1.49845,-0.739236 1.49845,-1.578368 0,-0.809164 -0.59938,-1.568379 -1.47847,-1.568379 -0.969,0 -1.63831,0.799174 -1.89804,1.168792 z m 0.22976,0.259731 c 0.27971,-0.459525 0.87909,-1.158802 1.7382,-1.158802 0.70927,0 1.20875,0.62935 1.20875,1.298658 0,0.669308 -0.53944,1.19876 -1.18877,1.19876 -0.64932,0 -1.08887,-0.529452 -1.75818,-1.338616 z m -0.56941,0.29969 c -0.27971,0.449536 -0.88908,1.148813 -1.7382,1.148813 -0.71925,0 -1.21873,-0.62935 -1.21873,-1.298658 0,-0.669308 0.54943,-1.188771 1.18876,-1.188771 0.64933,0 1.09887,0.529453 1.76817,1.338616 z m 0,0"
           style="fill:#000000;fill-opacity:1;fill-rule:nonzero;stroke:none"
           id="path35" />
        <path
           d="m 201.27296,37.667395 c 0,-0.02997 0,-0.04995 -0.16982,-0.219773 -1.24871,-1.248709 -1.55839,-3.136757 -1.55839,-4.655187 0,-1.738203 0.36962,-3.466416 1.59835,-4.715125 0.12986,-0.119876 0.12986,-0.139855 0.12986,-0.169824 0,-0.06993 -0.04,-0.0999 -0.0999,-0.0999 -0.0999,0 -0.99897,0.679298 -1.57837,1.947986 -0.50947,1.088874 -0.62935,2.197728 -0.62935,3.03686 0,0.779195 0.10989,1.977955 0.65932,3.106788 0.58939,1.21874 1.4485,1.868069 1.5484,1.868069 0.0599,0 0.0999,-0.02997 0.0999,-0.0999 z m 0,0"
           style="fill:#000000;fill-opacity:1;fill-rule:nonzero;stroke:none"
           id="path36" />
        <path
           d="m 208.13836,29.525813 c 0.0999,-0.409577 0.27971,-0.709267 1.07888,-0.739236 0.0499,0 0.16982,-0.01 0.16982,-0.199793 0,-0.01 0,-0.109887 -0.12986,-0.109887 -0.32966,0 -0.6793,0.02997 -1.01895,0.02997 -0.33965,0 -0.70926,-0.02997 -1.03892,-0.02997 -0.0599,0 -0.17982,0 -0.17982,0.199794 0,0.109886 0.0999,0.109886 0.17982,0.109886 0.56941,0.01 0.6793,0.219773 0.6793,0.439546 0,0.02997 -0.02,0.179814 -0.03,0.209783 l -0.89907,3.556323 c -0.32966,1.328626 -1.47847,2.197727 -2.47744,2.197727 -0.67929,0 -1.20875,-0.439545 -1.20875,-1.298657 0,-0.01998 0,-0.329659 0.10989,-0.769205 l 0.95901,-3.875992 c 0.0899,-0.359628 0.10988,-0.459525 0.83913,-0.459525 0.25973,0 0.33965,0 0.33965,-0.199793 0,-0.109887 -0.10989,-0.109887 -0.13986,-0.109887 -0.27971,0 -0.99896,0.02997 -1.27867,0.02997 -0.2897,0 -0.98898,-0.02997 -1.27868,-0.02997 -0.0799,0 -0.1898,0 -0.1898,0.199794 0,0.109886 0.0899,0.109886 0.27971,0.109886 0.02,0 0.20978,0 0.3796,0.01998 0.17982,0.01998 0.25973,0.02997 0.25973,0.159835 0,0.05994 -0.0999,0.479504 -0.15983,0.709267 l -0.21977,0.869101 c -0.0899,0.389597 -0.56941,2.277645 -0.60937,2.467449 -0.0699,0.279711 -0.0699,0.429556 -0.0699,0.579401 0,1.20875 0.90906,1.908027 1.94798,1.908027 1.2587,0 2.48743,-1.128833 2.81709,-2.43748 z m 0,0"
           style="fill:#000000;fill-opacity:1;fill-rule:nonzero;stroke:none"
           id="path37" />
        <path
           d="m 212.61122,32.792435 c 0,-0.779194 -0.10988,-1.987944 -0.65931,-3.106787 -0.58939,-1.22873 -1.4485,-1.878059 -1.5484,-1.878059 -0.0599,0 -0.0999,0.03996 -0.0999,0.0999 0,0.02997 0,0.04995 0.18981,0.229762 0.96899,0.988978 1.5384,2.567346 1.5384,4.655187 0,1.698244 -0.36961,3.456427 -1.59834,4.705136 -0.12987,0.119876 -0.12987,0.139855 -0.12987,0.169824 0,0.05994 0.04,0.0999 0.0999,0.0999 0.0999,0 0.98898,-0.679298 1.57837,-1.937997 0.50947,-1.098863 0.62934,-2.207717 0.62934,-3.03686 z m 0,0"
           style="fill:#000000;fill-opacity:1;fill-rule:nonzero;stroke:none"
           id="path38" />
      </g>
      <path
         d="M 383.477,437.352 H 637.66"
         style="fill:none;stroke:#000000;stroke-width:3.9848;stroke-linecap:butt;stroke-linejoin:miter;stroke-miterlimit:10;stroke-dasharray:none;stroke-opacity:1"
         transform="matrix(0.15641178,0,0,-0.15641155,113.36,197.48078)"
         id="path39" />
      <path
         d="m 618.93,461.262 c 3.785,-14.348 12.222,-21.121 20.722,-23.91 -8.5,-2.789 -16.937,-9.563 -20.722,-23.911"
         style="fill:none;stroke:#000000;stroke-width:3.9848;stroke-linecap:round;stroke-linejoin:round;stroke-miterlimit:10;stroke-dasharray:none;stroke-opacity:1"
         transform="matrix(0.15641178,0,0,-0.15641155,113.36,197.48078)"
         id="path40" />
      <path
         d="m 3.9846502,-4.6259731 c 0,-0.019979 0.019979,-0.1098864 0.019979,-0.1198761 0,-0.029969 -0.019979,-0.089907 -0.1098862,-0.089907 -0.1398552,0 -0.7192553,0.049948 -0.8890795,0.069928 -0.059938,0 -0.1598345,0.00999 -0.1598345,0.1598347 0,0.089907 0.099897,0.089907 0.1898035,0.089907 0.3296587,0 0.3296587,0.049948 0.3296587,0.1098864 0,0.049948 -0.00999,0.089907 -0.029969,0.149845 L 2.9457259,-2.6679975 C 2.795881,-2.8977599 2.5561293,-3.077574 2.2264706,-3.077574 c -0.8990691,0 -1.79813817,0.9889775 -1.79813817,1.9879446 0,0.67929766 0.44953455,1.15880189 1.04891397,1.15880189 0.3796069,0 0.7092656,-0.21977277 0.988976,-0.4894939 0.1298655,0.41956619898 0.5394414,0.4894939 0.7192552,0.4894939 0.2497415,0 0.4295553,-0.14984507 0.5494312,-0.36961785 0.1498448,-0.26972112 0.2497414,-0.66930798 0.2497414,-0.699277 0,-0.089907 -0.099897,-0.089907 -0.1198759,-0.089907 -0.089907,0 -0.099897,0.029969 -0.1498449,0.21977381 -0.079917,0.32965916 -0.2197724,0.73923569 -0.5094724,0.73923569 -0.1798139,0 -0.2297621,-0.14984507 -0.2297621,-0.33964883 0,-0.12986573 0.00999,-0.18980376 0.039959,-0.2797108 z m -1.4884589,3.75611647 c -0.049948,0.18980376 -0.1997931,0.32965916 -0.3596276,0.46951456 -0.059938,0.0499484 -0.3396483,0.26972113 -0.639338,0.26972113 -0.2597311,0 -0.5094725,-0.17981409 -0.5094725,-0.66930799 0,-0.36961787 0.1997931,-1.13882257 0.3596276,-1.41853337 0.3296587,-0.5594216 0.6792967,-0.6593183 0.8790898,-0.6593183 0.4894932,0 0.6193587,0.5294526 0.6193587,0.5993803 0,0.029969 -0.019979,0.079917 -0.019979,0.099897 z m 0,0"
         style="fill:#000000;fill-opacity:1;fill-rule:nonzero;stroke:none"
         aria-label="d"
         transform="matrix(1.5641178,0,0,1.5641155,190.28707,125.40743)"
         id="path41" />
      <path
         d="M 202.078,349.086 V 177.723"
         style="fill:none;stroke:#000000;stroke-width:3.9848;stroke-linecap:butt;stroke-linejoin:miter;stroke-miterlimit:10;stroke-dasharray:none;stroke-opacity:1"
         transform="matrix(0.15641178,0,0,-0.15641155,113.36,197.48078)"
         id="path42" />
      <path
         d="m 225.988,196.453 c -14.347,-3.785 -21.121,-12.223 -23.91,-20.723 -2.789,8.5 -9.562,16.938 -23.91,20.723"
         style="fill:none;stroke:#000000;stroke-width:3.9848;stroke-linecap:round;stroke-linejoin:round;stroke-miterlimit:10;stroke-dasharray:none;stroke-opacity:1"
         transform="matrix(0.15641178,0,0,-0.15641155,113.36,197.48078)"
         id="path43" />
      <path
         d="m 5.6845649,-3.1775656 c 0,-0.2497418 -0.099896,-0.2597314 -0.1198758,-0.2597314 -0.069928,0 -0.1098863,0.119876 -0.1198759,0.1898037 -0.00999,0.1398554 -0.029969,0.4595249 -0.2996897,0.7192564 -0.2697208,0.2497418 -0.5394415,0.2996901 -0.7492243,0.2996901 -0.4795035,0 -0.8191518,-0.2597314 -1.3386139,-0.6593183 -0.3396484,-0.2597315 -0.7492243,-0.5594216 -1.2287278,-0.5594216 -0.7492243,0 -1.28866571,0.6792977 -1.28866571,1.428523 0,0.2497418 0.0998966,0.2697211 0.11987588,0.2697211 0.0699276,0 0.10988622,-0.1298657 0.10988622,-0.1898037 0.00999,-0.1398554 0.029969,-0.4695146 0.29968971,-0.7192564 0.2797104,-0.2597314 0.5494311,-0.3096798 0.7592139,-0.3096798 0.4695139,0 0.8191518,0.2697212 1.3286243,0.669308 0.349638,0.2597315 0.7592139,0.5594216 1.2387174,0.5594216 0.7392346,0 1.2886657,-0.6792976 1.2886657,-1.4385127 z m -4.86496272,2.79710804 c -0.11987588,0 -0.27971039,0 -0.27971039,0.16982441 0,0.16982442 0.15983451,0.16982442 0.27971039,0.16982442 H 5.4048545 c 0.1098863,0 0.2797104,0 0.2797104,-0.16982442 0,-0.16982441 -0.1598345,-0.16982441 -0.2797104,-0.16982441 z m 0,0"
         style="fill:#000000;fill-opacity:1;fill-rule:nonzero;stroke:none"
         aria-label="≃"
         transform="matrix(1.5641178,0,0,1.5641155,131.5618,159.28649)"
         id="path44" />
      <path
         d="m 1004.44,437.352 h 231.13"
         style="fill:none;stroke:#000000;stroke-width:3.9848;stroke-linecap:butt;stroke-linejoin:miter;stroke-miterlimit:10;stroke-dasharray:none;stroke-opacity:1"
         transform="matrix(0.15641178,0,0,-0.15641155,113.36,197.48078)"
         id="path45" />
      <path
         d="m 1216.85,461.262 c 3.78,-14.348 12.22,-21.121 20.72,-23.91 -8.5,-2.789 -16.94,-9.563 -20.72,-23.911"
         style="fill:none;stroke:#000000;stroke-width:3.9848;stroke-linecap:round;stroke-linejoin:round;stroke-miterlimit:10;stroke-dasharray:none;stroke-opacity:1"
         transform="matrix(0.15641178,0,0,-0.15641155,113.36,197.48078)"
         id="path46" />
      <path
         d="m 3.9854476,-4.6259731 c 0,-0.019979 0.019979,-0.1098864 0.019979,-0.1198761 0,-0.029969 -0.019979,-0.089907 -0.1098862,-0.089907 -0.1398552,0 -0.7192553,0.049948 -0.8890795,0.069928 -0.059938,0 -0.1598345,0.00999 -0.1598345,0.1598347 0,0.089907 0.099897,0.089907 0.1898035,0.089907 0.3296587,0 0.3296587,0.049948 0.3296587,0.1098864 0,0.049948 -0.00999,0.089907 -0.029969,0.149845 L 2.9465233,-2.6679975 C 2.7966785,-2.8977599 2.5569267,-3.077574 2.227268,-3.077574 c -0.8990691,0 -1.79813815,0.9889775 -1.79813815,1.9879446 0,0.67929766 0.44953454,1.15880189 1.04891395,1.15880189 0.3796069,0 0.7092656,-0.21977277 0.988976,-0.4894939 0.1298655,0.41956619898 0.5394414,0.4894939 0.7192553,0.4894939 0.2497414,0 0.4295552,-0.14984507 0.5494311,-0.36961785 0.1498448,-0.26972112 0.2497414,-0.66930798 0.2497414,-0.699277 0,-0.089907 -0.099897,-0.089907 -0.1198759,-0.089907 -0.089907,0 -0.099897,0.029969 -0.1498448,0.21977381 -0.079917,0.32965916 -0.2197725,0.73923569 -0.5094725,0.73923569 -0.1798138,0 -0.2297621,-0.14984507 -0.2297621,-0.33964883 0,-0.12986573 0.00999,-0.18980376 0.039959,-0.2797108 z m -1.4884588,3.75611647 c -0.049948,0.18980376 -0.1997932,0.32965916 -0.3596277,0.46951456 -0.059938,0.0499484 -0.3396483,0.26972113 -0.639338,0.26972113 -0.2597311,0 -0.50947248,-0.17981409 -0.50947248,-0.66930799 0,-0.36961787 0.19979308,-1.13882257 0.35962768,-1.41853337 0.3296586,-0.5594216 0.6792966,-0.6593183 0.8790897,-0.6593183 0.4894932,0 0.6193587,0.5294526 0.6193587,0.5993803 0,0.029969 -0.019979,0.079917 -0.019979,0.099897 z m 0,0"
         style="fill:#000000;fill-opacity:1;fill-rule:nonzero;stroke:none"
         aria-label="d"
         transform="matrix(1.5641178,0,0,1.5641155,285.61004,125.40743)"
         id="path47" />
      <path
         d="M 823.043,349.086 V 177.723"
         style="fill:none;stroke:#000000;stroke-width:3.9848;stroke-linecap:butt;stroke-linejoin:miter;stroke-miterlimit:10;stroke-dasharray:none;stroke-opacity:1"
         transform="matrix(0.15641178,0,0,-0.15641155,113.36,197.48078)"
         id="path48" />
      <path
         d="m 846.949,196.453 c -14.344,-3.785 -21.117,-12.223 -23.906,-20.723 -2.793,8.5 -9.566,16.938 -23.91,20.723"
         style="fill:none;stroke:#000000;stroke-width:3.9848;stroke-linecap:round;stroke-linejoin:round;stroke-miterlimit:10;stroke-dasharray:none;stroke-opacity:1"
         transform="matrix(0.15641178,0,0,-0.15641155,113.36,197.48078)"
         id="path49" />
      <path
         d="m 5.6841703,-3.1775656 c 0,-0.2497418 -0.099897,-0.2597314 -0.1198759,-0.2597314 -0.069928,0 -0.1098862,0.119876 -0.1198759,0.1898037 -0.00999,0.1398554 -0.029969,0.4595249 -0.2996897,0.7192564 -0.2697207,0.2497418 -0.5394414,0.2996901 -0.7492242,0.2996901 -0.4795035,0 -0.8191519,-0.2597314 -1.338614,-0.6593183 -0.3396483,-0.2597315 -0.7492243,-0.5594216 -1.2287278,-0.5594216 -0.7492242,0 -1.28866567,0.6792977 -1.28866567,1.428523 0,0.2497418 0.0998966,0.2697211 0.11987588,0.2697211 0.0699276,0 0.10988622,-0.1298657 0.10988622,-0.1898037 0.00999,-0.1398554 0.029969,-0.4695146 0.29968967,-0.7192564 0.2797104,-0.2597314 0.5494311,-0.3096798 0.7592139,-0.3096798 0.4695139,0 0.8191519,0.2697212 1.3286244,0.669308 0.3496379,0.2597315 0.7592139,0.5594216 1.2387174,0.5594216 0.7392346,0 1.2886657,-0.6792976 1.2886657,-1.4385127 z m -4.86496279,2.79710804 c -0.11987588,0 -0.27971038,0 -0.27971038,0.16982441 0,0.16982442 0.1598345,0.16982442 0.27971038,0.16982442 H 5.4044599 c 0.1098862,0 0.2797104,0 0.2797104,-0.16982442 0,-0.16982441 -0.1598345,-0.16982441 -0.2797104,-0.16982441 z m 0,0"
         style="fill:#000000;fill-opacity:1;fill-rule:nonzero;stroke:none"
         aria-label="≃"
         transform="matrix(1.5641178,0,0,1.5641155,228.68741,159.28649)"
         id="path50" />
      <path
         d="m 1602.36,437.352 h 254.18"
         style="fill:none;stroke:#000000;stroke-width:3.9848;stroke-linecap:butt;stroke-linejoin:miter;stroke-miterlimit:10;stroke-dasharray:none;stroke-opacity:1"
         transform="matrix(0.15641178,0,0,-0.15641155,113.36,197.48078)"
         id="path51" />
      <path
         d="m 1837.81,461.262 c 3.79,-14.348 12.22,-21.121 20.72,-23.91 -8.5,-2.789 -16.93,-9.563 -20.72,-23.911"
         style="fill:none;stroke:#000000;stroke-width:3.9848;stroke-linecap:round;stroke-linejoin:round;stroke-miterlimit:10;stroke-dasharray:none;stroke-opacity:1"
         transform="matrix(0.15641178,0,0,-0.15641155,113.36,197.48078)"
         id="path52" />
      <path
         d="m 3.985845,-4.6259731 c 0,-0.019979 0.019979,-0.1098864 0.019979,-0.1198761 0,-0.029969 -0.019979,-0.089907 -0.1098862,-0.089907 -0.1398552,0 -0.7192553,0.049948 -0.8890794,0.069928 -0.059938,0 -0.1598345,0.00999 -0.1598345,0.1598347 0,0.089907 0.099897,0.089907 0.1898034,0.089907 0.3296587,0 0.3296587,0.049948 0.3296587,0.1098864 0,0.049948 -0.00999,0.089907 -0.029969,0.149845 L 2.9469207,-2.6679975 C 2.7970759,-2.8977599 2.5573241,-3.077574 2.2276654,-3.077574 c -0.899069,0 -1.79813814,0.9889775 -1.79813814,1.9879446 0,0.67929766 0.44953455,1.15880189 1.04891394,1.15880189 0.379607,0 0.7092656,-0.21977277 0.988976,-0.4894939 0.1298655,0.41956619898 0.5394415,0.4894939 0.7192553,0.4894939 0.2497414,0 0.4295552,-0.14984507 0.5494311,-0.36961785 0.1498448,-0.26972112 0.2497414,-0.66930798 0.2497414,-0.699277 0,-0.089907 -0.099897,-0.089907 -0.1198759,-0.089907 -0.089907,0 -0.099896,0.029969 -0.1498448,0.21977381 -0.079917,0.32965916 -0.2197725,0.73923569 -0.5094725,0.73923569 -0.1798138,0 -0.2297621,-0.14984507 -0.2297621,-0.33964883 0,-0.12986573 0.00999,-0.18980376 0.039959,-0.2797108 z m -1.4884588,3.75611647 c -0.049948,0.18980376 -0.1997932,0.32965916 -0.3596277,0.46951456 -0.059938,0.0499484 -0.3396483,0.26972113 -0.639338,0.26972113 -0.2597311,0 -0.50947247,-0.17981409 -0.50947247,-0.66930799 0,-0.36961787 0.19979317,-1.13882257 0.35962767,-1.41853337 0.3296586,-0.5594216 0.6792966,-0.6593183 0.8790897,-0.6593183 0.4894932,0 0.6193588,0.5294526 0.6193588,0.5993803 0,0.029969 -0.019979,0.079917 -0.019979,0.099897 z m 0,0"
         style="fill:#000000;fill-opacity:1;fill-rule:nonzero;stroke:none"
         aria-label="d"
         transform="matrix(1.5641178,0,0,1.5641155,380.93364,125.40743)"
         id="path53" />
      <path
         d="M 1420.96,349.086 V 177.723"
         style="fill:none;stroke:#000000;stroke-width:3.9848;stroke-linecap:butt;stroke-linejoin:miter;stroke-miterlimit:10;stroke-dasharray:none;stroke-opacity:1"
         transform="matrix(0.15641178,0,0,-0.15641155,113.36,197.48078)"
         id="path54" />
      <path
         d="m 1444.87,196.453 c -14.35,-3.785 -21.12,-12.223 -23.91,-20.723 -2.79,8.5 -9.57,16.938 -23.91,20.723"
         style="fill:none;stroke:#000000;stroke-width:3.9848;stroke-linecap:round;stroke-linejoin:round;stroke-miterlimit:10;stroke-dasharray:none;stroke-opacity:1"
         transform="matrix(0.15641178,0,0,-0.15641155,113.36,197.48078)"
         id="path55" />
      <path
         d="m 5.6829623,-3.1775656 c 0,-0.2497418 -0.099896,-0.2597314 -0.1198758,-0.2597314 -0.069928,0 -0.1098863,0.119876 -0.1198759,0.1898037 -0.00999,0.1398554 -0.029969,0.4595249 -0.2996897,0.7192564 -0.2697207,0.2497418 -0.5394415,0.2996901 -0.7492243,0.2996901 -0.4795035,0 -0.8191518,-0.2597314 -1.3386139,-0.6593183 -0.3396484,-0.2597315 -0.7492243,-0.5594216 -1.2287278,-0.5594216 -0.7492242,0 -1.28866569,0.6792977 -1.28866569,1.428523 0,0.2497418 0.0998966,0.2697211 0.11987588,0.2697211 0.0699276,0 0.10988622,-0.1298657 0.10988622,-0.1898037 0.00999,-0.1398554 0.029969,-0.4695146 0.29968969,-0.7192564 0.2797104,-0.2597314 0.5494311,-0.3096798 0.7592139,-0.3096798 0.4695139,0 0.8191518,0.2697212 1.3286243,0.669308 0.349638,0.2597315 0.7592139,0.5594216 1.2387174,0.5594216 0.7392346,0 1.2886657,-0.6792976 1.2886657,-1.4385127 z m -4.86496271,2.79710804 c -0.11987588,0 -0.27971038,0 -0.27971038,0.16982441 0,0.16982442 0.1598345,0.16982442 0.27971038,0.16982442 H 5.403252 c 0.1098862,0 0.2797103,0 0.2797103,-0.16982442 0,-0.16982441 -0.1598345,-0.16982441 -0.2797103,-0.16982441 z m 0,0"
         style="fill:#000000;fill-opacity:1;fill-rule:nonzero;stroke:none"
         aria-label="≃"
         transform="matrix(1.5641178,0,0,1.5641155,322.20883,159.28649)"
         id="path56" />
      <path
         d="M 2041.92,349.086 V 177.723"
         style="fill:none;stroke:#000000;stroke-width:3.9848;stroke-linecap:butt;stroke-linejoin:miter;stroke-miterlimit:10;stroke-dasharray:none;stroke-opacity:1"
         transform="matrix(0.15641178,0,0,-0.15641155,113.36,197.48078)"
         id="path57" />
      <path
         d="m 2065.83,196.453 c -14.35,-3.785 -21.12,-12.223 -23.91,-20.723 -2.79,8.5 -9.56,16.938 -23.91,20.723"
         style="fill:none;stroke:#000000;stroke-width:3.9848;stroke-linecap:round;stroke-linejoin:round;stroke-miterlimit:10;stroke-dasharray:none;stroke-opacity:1"
         transform="matrix(0.15641178,0,0,-0.15641155,113.36,197.48078)"
         id="path58" />
      <path
         d="m 5.6838649,-3.1775656 c 0,-0.2497418 -0.099896,-0.2597314 -0.1198759,-0.2597314 -0.069928,0 -0.1098862,0.119876 -0.1198758,0.1898037 -0.00999,0.1398554 -0.029969,0.4595249 -0.2996897,0.7192564 -0.2697208,0.2497418 -0.5394415,0.2996901 -0.7492243,0.2996901 -0.4795035,0 -0.8191518,-0.2597314 -1.338614,-0.6593183 -0.3396483,-0.2597315 -0.7492242,-0.5594216 -1.2287277,-0.5594216 -0.7492243,0 -1.28866572,0.6792977 -1.28866572,1.428523 0,0.2497418 0.0998966,0.2697211 0.11987588,0.2697211 0.0699276,0 0.10988622,-0.1298657 0.10988622,-0.1898037 0.00999,-0.1398554 0.029969,-0.4695146 0.29968972,-0.7192564 0.2797104,-0.2597314 0.5494311,-0.3096798 0.7592139,-0.3096798 0.4695138,0 0.8191518,0.2697212 1.3286243,0.669308 0.349638,0.2597315 0.7592139,0.5594216 1.2387174,0.5594216 0.7392346,0 1.2886657,-0.6792976 1.2886657,-1.4385127 z m -4.86496274,2.79710804 c -0.11987588,0 -0.27971038,0 -0.27971038,0.16982441 0,0.16982442 0.1598345,0.16982442 0.27971038,0.16982442 H 5.4041545 c 0.1098863,0 0.2797104,0 0.2797104,-0.16982442 0,-0.16982441 -0.1598345,-0.16982441 -0.2797104,-0.16982441 z m 0,0"
         style="fill:#000000;fill-opacity:1;fill-rule:nonzero;stroke:none"
         aria-label="≃"
         transform="matrix(1.5641178,0,0,1.5641155,436.40664,159.28649)"
         id="path59" />
      <path
         d="M 406.523,85.4727 H 660.156"
         style="fill:none;stroke:#000000;stroke-width:3.9848;stroke-linecap:butt;stroke-linejoin:miter;stroke-miterlimit:10;stroke-dasharray:none;stroke-opacity:1"
         transform="matrix(0.15641178,0,0,-0.15641155,113.36,197.48078)"
         id="path60" />
      <path
         d="m 641.426,109.383 c 3.785,-14.3478 12.222,-21.1213 20.722,-23.9103 -8.5,-2.7891 -16.937,-9.5625 -20.722,-23.9102"
         style="fill:none;stroke:#000000;stroke-width:3.9848;stroke-linecap:round;stroke-linejoin:round;stroke-miterlimit:10;stroke-dasharray:none;stroke-opacity:1"
         transform="matrix(0.15641178,0,0,-0.15641155,113.36,197.48078)"
         id="path61" />
      <path
         d="m 1.0085286,-1.2389546 c 0.099897,0.059938 0.349638,0.2097831 0.7592139,0.2097831 0.7092656,0 1.2387174,-0.4795043 1.2387174,-1.0189465 0,-0.2697211 -0.1298655,-0.4894939 -0.2897,-0.669308 0.3096793,-0.2297624 0.5794,-0.2297624 0.6992759,-0.2297624 -0.029969,0.029969 -0.059938,0.049948 -0.059938,0.1598347 0,0.1398554 0.099897,0.2297624 0.2197724,0.2297624 0.099897,0 0.2197725,-0.069928 0.2197725,-0.2297624 0,-0.1598347 -0.1298656,-0.3596282 -0.4095759,-0.3596282 -0.099897,0 -0.4795036,0.019979 -0.8091622,0.3196695 -0.2097828,-0.1498451 -0.4994829,-0.2497418 -0.8091622,-0.2497418 -0.7192553,0 -1.23871743,0.4795043 -1.23871743,1.0289362 0,0.2697211 0.13985519,0.5194629 0.33964833,0.699277 -0.0599379,0.069928 -0.20978279,0.2996901 -0.20978279,0.56941126 0,0.089907 0.0199793,0.4195662 0.28970004,0.61935963 C 0.63891129,-0.06017339 0.269294,0.16958905 0.269294,0.5392069 c 0,0.5094732 0.7692036,0.8890808 1.7082313,0.8890808 0.8890794,0 1.7082313,-0.3496385 1.7082313,-0.90906015 0,-0.2097831 -0.079917,-0.57940094 -0.4695139,-0.78918404 -0.4095759,-0.21977277 -0.8191518,-0.21977277 -1.4984485,-0.21977277 -0.1498448,0 -0.3995863,0 -0.4595242,-0.00999 -0.2197724,-0.0399587 -0.34963798,-0.24974178 -0.34963798,-0.45952488 0,-0.16982436 0.0499483,-0.22976246 0.0998966,-0.27971046 z m 0.7592139,0 c -0.6792967,0 -0.6792967,-0.669308 -0.6792967,-0.8091634 0,-0.1098864 0,-0.3895972 0.1398552,-0.5694113 0.099897,-0.119876 0.2797104,-0.2497418 0.5394415,-0.2497418 0.6792966,0 0.6792966,0.669308 0.6792966,0.8191531 0,0.1098864 0,0.3895972 -0.1398552,0.5694113 -0.099897,0.119876 -0.2897,0.2397521 -0.5394414,0.2397521 z m 0,1.21873989 c 0.6193587,0 1.4984485,0 1.4984485,0.54943193 0,0.36961785 -0.5494311,0.68928738 -1.2886657,0.68928738 -0.729245,0 -1.27867607,-0.3296592 -1.27867607,-0.68928738 0,-0.23975211 0.21977245,-0.53944225 0.66930697,-0.54943193 z M 5.3490344,-1.5885931 c 0,-0.5893906 0.2697207,-1.2886676 0.929038,-1.2886676 -0.059938,0.049948 -0.1098862,0.1398554 -0.1098862,0.2497417 0,0.2297625 0.1798138,0.3196695 0.3096794,0.3196695 0.1698241,0 0.319669,-0.1098864 0.319669,-0.3196695 0,-0.2397521 -0.2197725,-0.4495352 -0.5494311,-0.4495352 -0.349638,0 -0.729245,0.2197728 -0.9390278,0.7492254 h -0.00999 V -3.0770542 L 4.30012,-2.9971372 v 0.2497418 c 0.4695139,0 0.5294518,0.049948 0.5294518,0.3895972 v 1.80813051 c 0,0.29969014 -0.069928,0.29969014 -0.5294518,0.29969014 v 0.24974178705 c 0.039959,0 0.5094725,-0.029969017 0.7991726,-0.029969017 0.2996897,0 0.5993794,0.01997935 0.9090587,0.029969017 V -0.24997715 H 5.8684965 c -0.5194621,0 -0.5194621,-0.0799174 -0.5194621,-0.31966949 z m 4.8374916,-0.2797108 c 0,-0.3696179 0,-0.639339 -0.3196694,-0.8890808 -0.2797104,-0.2397521 -0.6193587,-0.3496385 -1.0289347,-0.3496385 -0.6593173,0 -1.1288312,0.2497418 -1.1288312,0.669308 0,0.2297624 0.1498449,0.3496385 0.3296587,0.3496385 0.1898035,0 0.3296587,-0.1398554 0.3296587,-0.3296592 0,-0.119876 -0.049948,-0.2697211 -0.2397518,-0.3196694 0.2497414,-0.1798141 0.6493277,-0.1798141 0.6892863,-0.1798141 0.3995863,0 0.8191519,0.2597314 0.8191519,0.849122 v 0.2097831 c -0.379607,0.019979 -0.8391312,0.039959 -1.3486037,0.2297625 -0.6293483,0.2297624 -0.8291415,0.6093699 -0.8291415,0.92903943 0,0.59938029 0.729245,0.76920471 1.2287278,0.76920471 0.5494311,0 0.8790898,-0.30967982 1.0289346,-0.58939062 0.029969,0.28970047 0.2097828,0.54943193 0.5394413,0.54943193 0.01,0 0.689286,0 0.689286,-0.65931832 V -1.0091922 h -0.239751 v 0.36961786 c 0,0.0699277 0,0.40957653 -0.259731,0.40957653 -0.259731,0 -0.259731,-0.32965916 -0.259731,-0.4195662 z m -0.5494315,0.88908073 c 0,0.66930799 -0.5794001,0.84912208 -0.8990691,0.84912208 -0.349638,0 -0.6892863,-0.22976245 -0.6892863,-0.56941128 0,-0.38959723 0.3396483,-0.92903943 1.5883554,-0.97898783 z M 13.518076,-4.7653087 v 0.2497418 c 0.469514,0 0.529452,0.049948 0.529452,0.3895972 v 1.4485024 c -0.259731,-0.2497418 -0.58939,-0.3995869 -0.978986,-0.3995869 -0.929039,0 -1.708232,0.699277 -1.708232,1.5783681 0,0.86910143 0.739235,1.56837844 1.628314,1.56837844 0.569411,0 0.909059,-0.30967982 1.028935,-0.42955588 V 0.06969234 L 15.096442,-2.35363e-4 V -0.24997715 c -0.469514,0 -0.529452,-0.0499484 -0.529452,-0.38959719 V -4.8352364 Z m 0.499483,4.03582732 c -0.179814,0.32965916 -0.539442,0.59938029 -0.988976,0.59938029 -0.389597,0 -0.669307,-0.22976245 -0.809162,-0.42955588 -0.139856,-0.2097831 -0.219773,-0.48949393 -0.219773,-0.92903943 0,-0.1598348 0,-0.6892873 0.279711,-1.0189465 0.27971,-0.3096798 0.619358,-0.3696178 0.829141,-0.3696178 0.329659,0 0.629348,0.149845 0.829142,0.3995868 0.07992,0.1098864 0.07992,0.1198761 0.07992,0.2497418 z m 0,0"
         style="fill:#000000;fill-opacity:1;fill-rule:nonzero;stroke:none"
         aria-label="grad"
         transform="matrix(1.5641178,0,0,1.5641155,185.00457,178.32459)"
         id="path62" />
      <path
         d="M 981.941,85.4727 H 1258.07"
         style="fill:none;stroke:#000000;stroke-width:3.9848;stroke-linecap:butt;stroke-linejoin:miter;stroke-miterlimit:10;stroke-dasharray:none;stroke-opacity:1"
         transform="matrix(0.15641178,0,0,-0.15641155,113.36,197.48078)"
         id="path63" />
      <path
         d="m 1239.34,109.383 c 3.79,-14.3478 12.23,-21.1213 20.73,-23.9103 -8.5,-2.7891 -16.94,-9.5625 -20.73,-23.9102"
         style="fill:none;stroke:#000000;stroke-width:3.9848;stroke-linecap:round;stroke-linejoin:round;stroke-miterlimit:10;stroke-dasharray:none;stroke-opacity:1"
         transform="matrix(0.15641178,0,0,-0.15641155,113.36,197.48078)"
         id="path64" />
      <path
         d="m 2.7160062,-2.7875558 c -0.1298655,0.059938 -0.1997931,0.1698244 -0.1997931,0.3096798 0,0.1898038 0.1298656,0.3296592 0.3296587,0.3296592 0.1898035,0 0.3296586,-0.1198761 0.3296586,-0.3396489 0,-0.6193596 -0.9689966,-0.6193596 -1.1588001,-0.6193596 -1.04891396,0 -1.69824163,0.7991737 -1.69824163,1.5983474 0,0.87909114 0.74922423,1.57836814 1.65828303,1.57836814 1.0389242,0 1.2886657,-0.81915306 1.2886657,-0.9090601 0,-0.0799174 -0.089907,-0.0799174 -0.1198759,-0.0799174 -0.089907,0 -0.099897,0.0199794 -0.1298656,0.11987606 -0.1598345,0.42955587 -0.5294518,0.64932865 -0.9490173,0.64932865 -0.4894932,0 -1.10885191,-0.35962818 -1.10885191,-1.35859535 0,-0.8890807 0.42955521,-1.3785746 1.07888291,-1.3785746 0.089907,0 0.4195656,0 0.6792966,0.099897 z m 3.4014781,-0.2097831 v 0.2497418 c 0.4695139,0 0.5194622,0.049948 0.5194622,0.3895972 v 1.1887709 c 0,0.61935961 -0.3895967,1.03892581 -0.9290381,1.03892581 -0.6293484,0 -0.6593173,-0.29969014 -0.6593173,-0.64932865 V -3.0772563 l -1.0688933,0.079917 v 0.2497418 c 0.5194621,0 0.5194621,0.019979 0.5194621,0.639339 v 1.0489155 c 0,0.47950419 0,1.12883284 1.1687899,1.12883284 0.1498448,0 0.6593173,0 0.988976,-0.58939062 h 0.00999 V 0.06948984 L 7.7158298,-4.37861e-4 V -0.25017925 c -0.4695139,0 -0.5294518,-0.0499484 -0.5294518,-0.38959719 V -3.0772563 Z m 3.3115712,1.4085437 c 0,-0.5893906 0.2697207,-1.2886676 0.9290385,-1.2886676 -0.05994,0.049948 -0.109887,0.1398554 -0.109887,0.2497417 0,0.2297625 0.179814,0.3196695 0.30968,0.3196695 0.169824,0 0.319669,-0.1098864 0.319669,-0.3196695 0,-0.2397521 -0.219773,-0.4495352 -0.549431,-0.4495352 -0.3496384,0 -0.7292454,0.2197728 -0.9390282,0.7492254 h -0.00999 v -0.7492254 l -0.9989657,0.079917 v 0.2497418 c 0.4695139,0 0.5294518,0.049948 0.5294518,0.3895972 v 1.80813051 c 0,0.29969014 -0.069928,0.29969014 -0.5294518,0.29969014 v 0.24974178898 c 0.039959,0 0.5094725,-0.029969019 0.7991726,-0.029969019 0.2996897,0 0.5993794,0.01997935 0.9090593,0.029969019 V -0.25017925 H 9.9485176 c -0.5194621,0 -0.5194621,-0.0799174 -0.5194621,-0.31966948 z m 3.1692185,-3.2466433 -1.048914,0.069928 v 0.2497418 c 0.469514,0 0.519462,0.049948 0.519462,0.3895972 v 3.57630241 c 0,0.29969014 -0.06993,0.29969014 -0.519462,0.29969014 v 0.24974178898 c 0.01,0 0.499483,-0.029969019 0.779193,-0.029969019 0.269721,0 0.529452,0.0099897 0.789183,0.029969019 V -0.25017925 c -0.449534,0 -0.519462,0 -0.519462,-0.29969014 z m 0,0"
         style="fill:#000000;fill-opacity:1;fill-rule:nonzero;stroke:none"
         aria-label="curl"
         transform="matrix(1.5641178,0,0,1.5641155,278.44325,180.446)"
         id="path65" />
      <path
         d="m 1579.86,85.4727 h 253.63"
         style="fill:none;stroke:#000000;stroke-width:3.9848;stroke-linecap:butt;stroke-linejoin:miter;stroke-miterlimit:10;stroke-dasharray:none;stroke-opacity:1"
         transform="matrix(0.15641178,0,0,-0.15641155,113.36,197.48078)"
         id="path66" />
      <path
         d="m 1814.77,109.383 c 3.78,-14.3478 12.22,-21.1213 20.71,-23.9103 -8.49,-2.7891 -16.93,-9.5625 -20.71,-23.9102"
         style="fill:none;stroke:#000000;stroke-width:3.9848;stroke-linecap:round;stroke-linejoin:round;stroke-miterlimit:10;stroke-dasharray:none;stroke-opacity:1"
         transform="matrix(0.15641178,0,0,-0.15641155,113.36,197.48078)"
         id="path67" />
      <path
         d="m 2.4777845,-4.7655108 v 0.2497418 c 0.4695139,0 0.5294518,0.049948 0.5294518,0.3895972 v 1.4485024 C 2.7475052,-2.9274112 2.4178466,-3.0772563 2.02825,-3.0772563 c -0.9290381,0 -1.70823132,0.699277 -1.70823132,1.5783681 0,0.86910144 0.73923462,1.56837844 1.62831402,1.56837844 0.5694104,0 0.9090588,-0.30967982 1.0289346,-0.42955587 V 0.06949024 L 4.0561502,-4.37461e-4 V -0.25017925 c -0.4695138,0 -0.5294518,-0.0499484 -0.5294518,-0.38959719 V -4.8354385 Z m 0.4994828,4.03582732 c -0.1798138,0.32965916 -0.5394414,0.59938029 -0.988976,0.59938029 -0.3895966,0 -0.669307,-0.22976244 -0.8091621,-0.42955587 C 1.039274,-0.76964216 0.95935671,-1.049353 0.95935671,-1.4888985 c 0,-0.1598348 0,-0.6892873 0.27971039,-1.0189465 0.2797104,-0.3096798 0.6193587,-0.3696178 0.8291415,-0.3696178 0.3296587,0 0.6293484,0.149845 0.8291415,0.3995868 0.079917,0.1098864 0.079917,0.1198761 0.079917,0.2497418 z M 5.9092315,-4.3059859 c 0,-0.1997934 -0.1598345,-0.3895972 -0.3995862,-0.3895972 -0.2097828,0 -0.3995863,0.1598348 -0.3995863,0.3895972 0,0.2497418 0.1997931,0.4095766 0.3995863,0.4095766 0.2197724,0 0.3995862,-0.1798141 0.3995862,-0.4095766 z m -1.0589036,1.308647 v 0.2497418 c 0.4395449,0 0.4994829,0.039959 0.4994829,0.3796075 v 1.81812021 c 0,0.29969014 -0.069928,0.29969014 -0.5194622,0.29969014 v 0.24974178898 c 0.00999,0 0.4994829,-0.029969019 0.7791932,-0.029969019 0.2497415,0 0.4994829,0.0099897 0.7392346,0.029969019 V -0.25017925 c -0.3995862,0 -0.4695138,0 -0.4695138,-0.28970047 V -3.0772563 Z m 5.1771391,0.6792977 c 0.189804,-0.4295559 0.539442,-0.4395456 0.649328,-0.4395456 v -0.2497418 c -0.169824,0.019979 -0.349638,0.029969 -0.529452,0.029969 -0.1798135,0 -0.4395445,-0.00999 -0.629348,-0.029969 v 0.2497418 c 0.2897,0.019979 0.2897,0.2497418 0.2897,0.2697211 0,0.029969 0,0.099897 -0.049948,0.1997935 L 8.9685639,-0.56984873 8.0994638,-2.4578966 c 0,-0.00999 -0.039959,-0.089907 -0.039959,-0.1398554 0,-0.1598348 0.2397518,-0.1598348 0.3596277,-0.1598348 v -0.2497418 c -0.019979,0 -0.5094725,0.029969 -0.7991726,0.029969 -0.2097828,0 -0.4795035,-0.00999 -0.6792966,-0.029969 v 0.2497418 c 0.3796069,0 0.4595242,0.019979 0.5694104,0.2497418 l 1.0988622,2.42749017 c 0.039959,0.08990704 0.079917,0.14984507 0.1997932,0.14984507 0.1298655,0 0.1598345,-0.05993803 0.1898034,-0.1398554 z m 0,0"
         style="fill:#000000;fill-opacity:1;fill-rule:nonzero;stroke:none"
         aria-label="div"
         transform="matrix(1.5641178,0,0,1.5641155,372.05414,180.446)"
         id="path68" />
    </g>
  </g>
</svg>
