<?xml version="1.0" encoding="UTF-8" standalone="no"?>
<!-- Created with Inkscape (http://www.inkscape.org/) -->

<svg
   width="75.641899mm"
   height="16.708025mm"
   viewBox="0 0 75.641899 16.708025"
   version="1.1"
   id="svg1"
   xml:space="preserve"
   xmlns:inkscape="http://www.inkscape.org/namespaces/inkscape"
   xmlns:sodipodi="http://sodipodi.sourceforge.net/DTD/sodipodi-0.dtd"
   xmlns="http://www.w3.org/2000/svg"
   xmlns:svg="http://www.w3.org/2000/svg"><sodipodi:namedview
     id="namedview1"
     pagecolor="#ffffff"
     bordercolor="#000000"
     borderopacity="0.25"
     inkscape:showpageshadow="2"
     inkscape:pageopacity="0.0"
     inkscape:pagecheckerboard="0"
     inkscape:deskcolor="#d1d1d1"
     inkscape:document-units="mm"
     showgrid="false"
     inkscape:zoom="0.53540264"
     inkscape:cx="240.00629"
     inkscape:cy="408.10408"
     inkscape:window-width="1740"
     inkscape:window-height="820"
     inkscape:window-x="77"
     inkscape:window-y="83"
     inkscape:window-maximized="0"
     inkscape:current-layer="layer1"><inkscape:page
       x="0"
       y="0"
       width="75.641899"
       height="16.708025"
       id="page2"
       margin="0"
       bleed="0" /></sodipodi:namedview><defs
     id="defs1" /><g
     inkscape:label="图层 1"
     inkscape:groupmode="layer"
     id="layer1"
     transform="translate(-61.383331,-46.037499)"><g
       id="g1"
       inkscape:label="1"
       transform="matrix(0.26458333,0,0,0.26458334,240.90209,20.10833)"
       style="display:inline"
       inkscape:export-filename="diagram.svg"
       inkscape:export-xdpi="96"
       inkscape:export-ydpi="96"><g
         id="g2"
         aria-label="Ω&#10;0&#10;(U)Ω&#10;1&#10;(U)Ω&#10;2&#10;(U)Ω&#10;3&#10;(U)&#10;C&#10;∞&#10;(U)X(U)X(U)C&#10;∞&#10;(U)"
         transform="matrix(1.3333333,0,0,1.3333333,-676.09428,110.77894)"><path
           id="path2"
           d="M 6.7386681,-1.6183875 H 6.4925744 C 6.4456994,-1.360575 6.4105431,-1.1262 6.3167931,-0.891825 c -0.046875,0.1640625 -0.082031,0.24609375 -0.65625,0.24609375 H 4.8636681 C 4.9925744,-1.2082312 5.2972619,-1.6887 5.7425744,-2.34495 c 0.46875,-0.703125 0.8789062,-1.3945312 0.8789062,-2.1796875 0,-1.3828125 -1.3359375,-2.4960937 -3.0234375,-2.4960937 -1.7109375,0 -3.03515622,1.1367187 -3.03515622,2.4960937 0,0.7851563 0.3984375,1.4765625 0.86718752,2.1796875 0.4453125,0.65625 0.7617187,1.1367188 0.890625,1.69921875 h -0.796875 c -0.57421877,0 -0.60937502,-0.0820313 -0.65625002,-0.234375 C 0.78554313,-1.1027625 0.73866813,-1.360575 0.69179313,-1.6183875 H 0.43398063 L 0.76210563,-0.0012 H 2.3558556 c 0.2226563,0 0.2578125,0 0.2578125,-0.2109375 0,-0.69140625 -0.3164062,-1.5703125 -0.5390625,-2.2148437 -0.2109375,-0.5742188 -0.4921875,-1.359375 -0.4921875,-2.109375 0,-1.59375 1.1015625,-2.2734375 2.0039063,-2.2734375 0.9609375,0 2.015625,0.7265625 2.015625,2.2734375 0,0.75 -0.2695313,1.5117187 -0.5625,2.3203125 -0.1523438,0.421875 -0.46875,1.31249995 -0.46875,2.0039062 0,0.2109375 0.035156,0.2109375 0.2578125,0.2109375 h 1.5820312 z m 0,0"
           style="fill:#000000;fill-opacity:1;fill-rule:nonzero;stroke:none" /><path
           id="path3"
           d="m 10.796285,-5.8254187 c 0,-0.7617188 -0.09375,-1.3125 -0.410156,-1.8046875 -0.222656,-0.3164063 -0.6445312,-0.5976563 -1.2070312,-0.5976563 -1.6171875,0 -1.6171875,1.8984375 -1.6171875,2.4023438 0,0.5039062 0,2.3671875 1.6171875,2.3671875 1.6171872,0 1.6171872,-1.8632813 1.6171872,-2.3671875 z M 9.1790978,-3.65745 c -0.3164062,0 -0.75,-0.1875 -0.890625,-0.7617187 -0.09375,-0.4101563 -0.09375,-0.984375 -0.09375,-1.5 0,-0.5039063 0,-1.03125 0.1054688,-1.4179688 0.1523437,-0.5507812 0.5976562,-0.6914062 0.8789062,-0.6914062 0.375,0 0.7382813,0.2226562 0.8671872,0.6328125 0.105469,0.375 0.117188,0.8789062 0.117188,1.4765625 0,0.515625 0,1.0429687 -0.09375,1.4765625 C 9.9290978,-3.8097937 9.4603478,-3.65745 9.1790978,-3.65745 Z m 0,0"
           style="fill:#000000;fill-opacity:1;fill-rule:nonzero;stroke:none" /><path
           id="path4"
           d="m 14.933004,2.389425 c 0,-0.035156 0,-0.046875 -0.164062,-0.2226562 -1.242188,-1.2539063 -1.570313,-3.1289063 -1.570313,-4.6640625 0,-1.7226563 0.386719,-3.4570313 1.605469,-4.7109375 0.128906,-0.1171875 0.128906,-0.1289063 0.128906,-0.1640625 0,-0.070312 -0.03516,-0.1054688 -0.09375,-0.1054688 -0.105469,0 -0.996094,0.6796875 -1.582031,1.9453125 -0.515625,1.1015625 -0.632813,2.203125 -0.632813,3.0351563 0,0.7851562 0.117188,1.99218745 0.65625,3.11718745 0.597657,1.21875005 1.453125,1.87500005 1.558594,1.87500005 0.05859,0 0.09375,-0.035156 0.09375,-0.1054688 z m 0,0"
           style="fill:#000000;fill-opacity:1;fill-rule:nonzero;stroke:none" /><path
           id="path5"
           d="m 21.808981,-5.7551062 c 0.09375,-0.4101563 0.28125,-0.7148438 1.078125,-0.7382813 0.04687,0 0.164062,-0.011719 0.164062,-0.1992187 0,-0.011719 0,-0.1171875 -0.128906,-0.1171875 -0.328125,0 -0.679688,0.035156 -1.019531,0.035156 -0.339844,0 -0.703125,-0.035156 -1.03125,-0.035156 -0.05859,0 -0.175782,0 -0.175782,0.1992187 0,0.1171875 0.09375,0.1171875 0.175782,0.1171875 0.5625,0.011719 0.679687,0.2109375 0.679687,0.4335938 0,0.035156 -0.02344,0.1757812 -0.03516,0.2109375 l -0.890625,3.5507812 c -0.339844,1.3359375 -1.488281,2.203125 -2.484375,2.203125 -0.679688,0 -1.21875,-0.43359375 -1.21875,-1.2890625 0,-0.023437 0,-0.3398437 0.117187,-0.7734375 l 0.960938,-3.8789062 c 0.09375,-0.3632813 0.105469,-0.4570313 0.832031,-0.4570313 0.269531,0 0.339844,0 0.339844,-0.1992187 0,-0.1171875 -0.105469,-0.1171875 -0.140625,-0.1171875 -0.269531,0 -0.996094,0.035156 -1.265625,0.035156 -0.292969,0 -0.996094,-0.035156 -1.289063,-0.035156 -0.08203,0 -0.1875,0 -0.1875,0.1992187 0,0.1171875 0.09375,0.1171875 0.28125,0.1171875 0.01172,0 0.210938,0 0.375,0.011719 0.175782,0.023437 0.269532,0.035156 0.269532,0.1640625 0,0.058594 -0.105469,0.4804687 -0.175782,0.703125 l -0.210937,0.8789062 c -0.09375,0.3867188 -0.574219,2.2734375 -0.609375,2.4609375 -0.07031,0.28125 -0.07031,0.4335938 -0.07031,0.5742188 0,1.21874995 0.902344,1.92187495 1.957032,1.92187495 1.253906,0 2.484375,-1.125 2.8125,-2.44921875 z m 0,0"
           style="fill:#000000;fill-opacity:1;fill-rule:nonzero;stroke:none" /><path
           id="path6"
           d="m 26.282613,-2.4972937 c 0,-0.7734375 -0.117187,-1.9804688 -0.65625,-3.1054688 -0.597656,-1.21875 -1.464843,-1.875 -1.558593,-1.875 -0.05859,0 -0.105469,0.046875 -0.105469,0.1054688 0,0.035156 0,0.046875 0.199219,0.234375 0.972656,0.984375 1.535156,2.5664062 1.535156,4.640625 0,1.71093745 -0.363281,3.4570312 -1.59375,4.7226562 -0.140625,0.1171875 -0.140625,0.1289063 -0.140625,0.1640625 0,0.058594 0.04687,0.1054688 0.105469,0.1054688 0.09375,0 0.996093,-0.6796875 1.582031,-1.94531255 0.503906,-1.1015625 0.632812,-2.20312495 0.632812,-3.04687495 z m 42.495118,0.8789062 h -0.246094 c -0.04687,0.2578125 -0.08203,0.4921875 -0.175781,0.7265625 -0.04687,0.1640625 -0.08203,0.24609375 -0.65625,0.24609375 H 66.902731 C 67.031637,-1.2082312 67.336324,-1.6887 67.781637,-2.34495 c 0.46875,-0.703125 0.878906,-1.3945312 0.878906,-2.1796875 0,-1.3828125 -1.335937,-2.4960937 -3.023437,-2.4960937 -1.710938,0 -3.035157,1.1367187 -3.035157,2.4960937 0,0.7851563 0.398438,1.4765625 0.867188,2.1796875 0.445312,0.65625 0.761719,1.1367188 0.890625,1.69921875 h -0.796875 c -0.574219,0 -0.609375,-0.0820313 -0.65625,-0.234375 C 62.824606,-1.1027625 62.777731,-1.360575 62.730856,-1.6183875 H 62.473043 L 62.801168,-0.0012 h 1.59375 c 0.222656,0 0.257813,0 0.257813,-0.2109375 0,-0.69140625 -0.316407,-1.5703125 -0.539063,-2.2148437 -0.210937,-0.5742188 -0.492187,-1.359375 -0.492187,-2.109375 0,-1.59375 1.101562,-2.2734375 2.003906,-2.2734375 0.960937,0 2.015625,0.7265625 2.015625,2.2734375 0,0.75 -0.269531,1.5117187 -0.5625,2.3203125 -0.152344,0.421875 -0.46875,1.31249995 -0.46875,2.0039062 0,0.2109375 0.03516,0.2109375 0.257812,0.2109375 h 1.582032 z m 0,0"
           style="fill:#000000;fill-opacity:1;fill-rule:nonzero;stroke:none" /><path
           id="path7"
           d="m 71.572653,-8.0285437 c 0,-0.1875 -0.01172,-0.1992188 -0.210938,-0.1992188 C 70.916403,-7.7941687 70.28359,-7.78245 70.00234,-7.78245 v 0.2460938 c 0.164063,0 0.621094,0 1.007813,-0.1875 v 3.5507812 c 0,0.234375 0,0.328125 -0.691407,0.328125 h -0.269531 v 0.2460938 c 0.128906,-0.011719 0.984375,-0.023437 1.242188,-0.023437 0.210937,0 1.089843,0.011719 1.242187,0.023437 V -3.84495 h -0.257812 c -0.703125,0 -0.703125,-0.09375 -0.703125,-0.328125 z m 0,0"
           style="fill:#000000;fill-opacity:1;fill-rule:nonzero;stroke:none" /><path
           id="path8"
           d="m 77.092184,2.389425 c 0,-0.035156 0,-0.046875 -0.164063,-0.2226562 -1.242187,-1.2539063 -1.570312,-3.1289063 -1.570312,-4.6640625 0,-1.7226563 0.386719,-3.4570313 1.605469,-4.7109375 0.128906,-0.1171875 0.128906,-0.1289063 0.128906,-0.1640625 0,-0.070312 -0.03516,-0.1054688 -0.09375,-0.1054688 -0.105469,0 -0.996094,0.6796875 -1.582031,1.9453125 -0.515625,1.1015625 -0.632813,2.203125 -0.632813,3.0351563 0,0.7851562 0.117188,1.99218745 0.65625,3.11718745 0.597656,1.21875005 1.453125,1.87500005 1.558594,1.87500005 0.05859,0 0.09375,-0.035156 0.09375,-0.1054688 z m 0,0"
           style="fill:#000000;fill-opacity:1;fill-rule:nonzero;stroke:none" /><path
           id="path9"
           d="m 83.96816,-5.7551062 c 0.09375,-0.4101563 0.28125,-0.7148438 1.078125,-0.7382813 0.04687,0 0.164063,-0.011719 0.164063,-0.1992187 0,-0.011719 0,-0.1171875 -0.128906,-0.1171875 -0.328125,0 -0.679688,0.035156 -1.019532,0.035156 -0.339843,0 -0.703125,-0.035156 -1.03125,-0.035156 -0.05859,0 -0.175781,0 -0.175781,0.1992187 0,0.1171875 0.09375,0.1171875 0.175781,0.1171875 0.5625,0.011719 0.679688,0.2109375 0.679688,0.4335938 0,0.035156 -0.02344,0.1757812 -0.03516,0.2109375 l -0.890625,3.5507812 c -0.339844,1.3359375 -1.488282,2.203125 -2.484375,2.203125 -0.679688,0 -1.21875,-0.43359375 -1.21875,-1.2890625 0,-0.023437 0,-0.3398437 0.117187,-0.7734375 l 0.960938,-3.8789062 c 0.09375,-0.3632813 0.105468,-0.4570313 0.832031,-0.4570313 0.269531,0 0.339844,0 0.339844,-0.1992187 0,-0.1171875 -0.105469,-0.1171875 -0.140625,-0.1171875 -0.269532,0 -0.996094,0.035156 -1.265625,0.035156 -0.292969,0 -0.996094,-0.035156 -1.289063,-0.035156 -0.08203,0 -0.1875,0 -0.1875,0.1992187 0,0.1171875 0.09375,0.1171875 0.28125,0.1171875 0.01172,0 0.210938,0 0.375,0.011719 0.175781,0.023437 0.269531,0.035156 0.269531,0.1640625 0,0.058594 -0.105468,0.4804687 -0.175781,0.703125 l -0.210937,0.8789062 c -0.09375,0.3867188 -0.574219,2.2734375 -0.609375,2.4609375 -0.07031,0.28125 -0.07031,0.4335938 -0.07031,0.5742188 0,1.21874995 0.902344,1.92187495 1.957031,1.92187495 1.253907,0 2.484375,-1.125 2.8125,-2.44921875 z m 0,0"
           style="fill:#000000;fill-opacity:1;fill-rule:nonzero;stroke:none" /><path
           id="path10"
           d="m 88.441793,-2.4972937 c 0,-0.7734375 -0.117187,-1.9804688 -0.65625,-3.1054688 -0.597656,-1.21875 -1.464844,-1.875 -1.558594,-1.875 -0.05859,0 -0.105468,0.046875 -0.105468,0.1054688 0,0.035156 0,0.046875 0.199218,0.234375 0.972657,0.984375 1.535157,2.5664062 1.535157,4.640625 0,1.71093745 -0.363282,3.4570312 -1.59375,4.7226562 -0.140625,0.1171875 -0.140625,0.1289063 -0.140625,0.1640625 0,0.058594 0.04687,0.1054688 0.105468,0.1054688 0.09375,0 0.996094,-0.6796875 1.582032,-1.94531255 0.503906,-1.1015625 0.632812,-2.20312495 0.632812,-3.04687495 z m 40.215817,0.8789062 h -0.24609 c -0.0469,0.2578125 -0.082,0.4921875 -0.17578,0.7265625 -0.0469,0.1640625 -0.082,0.24609375 -0.65625,0.24609375 h -0.79688 c 0.12891,-0.56249995 0.4336,-1.04296875 0.87891,-1.69921875 0.46875,-0.703125 0.87891,-1.3945312 0.87891,-2.1796875 0,-1.3828125 -1.33594,-2.4960937 -3.02344,-2.4960937 -1.71094,0 -3.03516,1.1367187 -3.03516,2.4960937 0,0.7851563 0.39844,1.4765625 0.86719,2.1796875 0.44531,0.65625 0.76172,1.1367188 0.89062,1.69921875 h -0.79687 c -0.57422,0 -0.60938,-0.0820313 -0.65625,-0.234375 -0.082,-0.22265625 -0.12891,-0.48046875 -0.17578,-0.73828125 h -0.25781 l 0.32812,1.6171875 h 1.59375 c 0.22266,0 0.25781,0 0.25781,-0.2109375 0,-0.69140625 -0.3164,-1.5703125 -0.53906,-2.2148437 -0.21094,-0.5742188 -0.49219,-1.359375 -0.49219,-2.109375 0,-1.59375 1.10157,-2.2734375 2.00391,-2.2734375 0.96094,0 2.01562,0.7265625 2.01562,2.2734375 0,0.75 -0.26953,1.5117187 -0.5625,2.3203125 -0.15234,0.421875 -0.46875,1.31249995 -0.46875,2.0039062 0,0.2109375 0.0352,0.2109375 0.25782,0.2109375 h 1.58203 z m 0,0"
           style="fill:#000000;fill-opacity:1;fill-rule:nonzero;stroke:none" /><path
           id="path11"
           d="m 132.63613,-4.8644812 h -0.23438 c -0.0234,0.1523437 -0.082,0.5625 -0.17578,0.6328125 -0.0586,0.035156 -0.59765,0.035156 -0.6914,0.035156 h -1.28907 c 0.73829,-0.6445312 0.98438,-0.84375 1.39454,-1.171875 0.51562,-0.4101562 0.99609,-0.84375 0.99609,-1.5 0,-0.84375 -0.73828,-1.359375 -1.62891,-1.359375 -0.86718,0 -1.45312,0.609375 -1.45312,1.2421875 0,0.3632813 0.30469,0.3984375 0.375,0.3984375 0.16406,0 0.375,-0.1171875 0.375,-0.375 0,-0.1289062 -0.0586,-0.3632812 -0.42188,-0.3632812 0.22266,-0.5039063 0.69141,-0.65625 1.01953,-0.65625 0.70313,0 1.06641,0.5507812 1.06641,1.1132812 0,0.609375 -0.43359,1.0898438 -0.65625,1.3359375 l -1.6875,1.6640625 c -0.0703,0.058594 -0.0703,0.070312 -0.0703,0.2695313 h 2.88281 z m 0,0"
           style="fill:#000000;fill-opacity:1;fill-rule:nonzero;stroke:none" /><path
           id="path12"
           d="m 136.85195,2.389425 c 0,-0.035156 0,-0.046875 -0.16406,-0.2226562 -1.24219,-1.2539063 -1.57032,-3.1289063 -1.57032,-4.6640625 0,-1.7226563 0.38672,-3.4570313 1.60547,-4.7109375 0.12891,-0.1171875 0.12891,-0.1289063 0.12891,-0.1640625 0,-0.070312 -0.0352,-0.1054688 -0.0937,-0.1054688 -0.10547,0 -0.99609,0.6796875 -1.58203,1.9453125 -0.51563,1.1015625 -0.63281,2.203125 -0.63281,3.0351563 0,0.7851562 0.11718,1.99218745 0.65625,3.11718745 0.59765,1.21875005 1.45312,1.87500005 1.55859,1.87500005 0.0586,0 0.0937,-0.035156 0.0937,-0.1054688 z m 0,0"
           style="fill:#000000;fill-opacity:1;fill-rule:nonzero;stroke:none" /><path
           id="path13"
           d="m 143.72793,-5.7551062 c 0.0937,-0.4101563 0.28125,-0.7148438 1.07812,-0.7382813 0.0469,0 0.16406,-0.011719 0.16406,-0.1992187 0,-0.011719 0,-0.1171875 -0.1289,-0.1171875 -0.32813,0 -0.67969,0.035156 -1.01953,0.035156 -0.33985,0 -0.70313,-0.035156 -1.03125,-0.035156 -0.0586,0 -0.17579,0 -0.17579,0.1992187 0,0.1171875 0.0937,0.1171875 0.17579,0.1171875 0.5625,0.011719 0.67968,0.2109375 0.67968,0.4335938 0,0.035156 -0.0234,0.1757812 -0.0352,0.2109375 l -0.89063,3.5507812 c -0.33984,1.3359375 -1.48828,2.203125 -2.48437,2.203125 -0.67969,0 -1.21875,-0.43359375 -1.21875,-1.2890625 0,-0.023437 0,-0.3398437 0.11718,-0.7734375 l 0.96094,-3.8789062 c 0.0937,-0.3632813 0.10547,-0.4570313 0.83203,-0.4570313 0.26953,0 0.33985,0 0.33985,-0.1992187 0,-0.1171875 -0.10547,-0.1171875 -0.14063,-0.1171875 -0.26953,0 -0.99609,0.035156 -1.26562,0.035156 -0.29297,0 -0.9961,-0.035156 -1.28907,-0.035156 -0.082,0 -0.1875,0 -0.1875,0.1992187 0,0.1171875 0.0937,0.1171875 0.28125,0.1171875 0.0117,0 0.21094,0 0.375,0.011719 0.17579,0.023437 0.26954,0.035156 0.26954,0.1640625 0,0.058594 -0.10547,0.4804687 -0.17579,0.703125 l -0.21093,0.8789062 c -0.0937,0.3867188 -0.57422,2.2734375 -0.60938,2.4609375 -0.0703,0.28125 -0.0703,0.4335938 -0.0703,0.5742188 0,1.21874995 0.90234,1.92187495 1.95703,1.92187495 1.25391,0 2.48438,-1.125 2.8125,-2.44921875 z m 0,0"
           style="fill:#000000;fill-opacity:1;fill-rule:nonzero;stroke:none" /><path
           id="path14"
           d="m 148.20156,-2.4972937 c 0,-0.7734375 -0.11719,-1.9804688 -0.65625,-3.1054688 -0.59766,-1.21875 -1.46485,-1.875 -1.5586,-1.875 -0.0586,0 -0.10546,0.046875 -0.10546,0.1054688 0,0.035156 0,0.046875 0.19921,0.234375 0.97266,0.984375 1.53516,2.5664062 1.53516,4.640625 0,1.71093745 -0.36328,3.4570312 -1.59375,4.7226562 -0.14062,0.1171875 -0.14062,0.1289063 -0.14062,0.1640625 0,0.058594 0.0469,0.1054688 0.10546,0.1054688 0.0937,0 0.9961,-0.6796875 1.58204,-1.94531255 0.5039,-1.1015625 0.63281,-2.20312495 0.63281,-3.04687495 z m 42.49805,0.8789062 h -0.2461 c -0.0469,0.2578125 -0.082,0.4921875 -0.17578,0.7265625 -0.0469,0.1640625 -0.082,0.24609375 -0.65625,0.24609375 h -0.79687 c 0.1289,-0.56249995 0.43359,-1.04296875 0.8789,-1.69921875 0.46875,-0.703125 0.87891,-1.3945312 0.87891,-2.1796875 0,-1.3828125 -1.33594,-2.4960937 -3.02344,-2.4960937 -1.71094,0 -3.03516,1.1367187 -3.03516,2.4960937 0,0.7851563 0.39844,1.4765625 0.86719,2.1796875 0.44531,0.65625 0.76172,1.1367188 0.89063,1.69921875 h -0.79688 c -0.57422,0 -0.60937,-0.0820313 -0.65625,-0.234375 -0.082,-0.22265625 -0.1289,-0.48046875 -0.17578,-0.73828125 h -0.25781 l 0.32812,1.6171875 h 1.59375 c 0.22266,0 0.25782,0 0.25782,-0.2109375 0,-0.69140625 -0.31641,-1.5703125 -0.53907,-2.2148437 -0.21093,-0.5742188 -0.49218,-1.359375 -0.49218,-2.109375 0,-1.59375 1.10156,-2.2734375 2.0039,-2.2734375 0.96094,0 2.01563,0.7265625 2.01563,2.2734375 0,0.75 -0.26953,1.5117187 -0.5625,2.3203125 -0.15235,0.421875 -0.46875,1.31249995 -0.46875,2.0039062 0,0.2109375 0.0351,0.2109375 0.25781,0.2109375 h 1.58203 z m 0,0"
           style="fill:#000000;fill-opacity:1;fill-rule:nonzero;stroke:none" /><path
           id="path15"
           d="m 193.058,-5.9308875 c 0.55079,0 0.9375,0.375 0.9375,1.125 0,0.8671875 -0.5039,1.125 -0.90234,1.125 -0.28125,0 -0.89062,-0.082031 -1.18359,-0.4921875 0.32812,-0.011719 0.39843,-0.2460937 0.39843,-0.3867187 0,-0.2226563 -0.16406,-0.3867188 -0.38671,-0.3867188 -0.1875,0 -0.38672,0.1171875 -0.38672,0.4101563 0,0.65625 0.72656,1.078125 1.57031,1.078125 0.97266,0 1.64062,-0.6445313 1.64062,-1.3476563 0,-0.5390625 -0.44531,-1.0898437 -1.21875,-1.2421875 0.73829,-0.2695312 0.9961,-0.796875 0.9961,-1.21875 0,-0.5507812 -0.63281,-0.9609375 -1.40625,-0.9609375 -0.77344,0 -1.35938,0.375 -1.35938,0.9375 0,0.234375 0.15235,0.3632813 0.36328,0.3632813 0.21094,0 0.35157,-0.1640625 0.35157,-0.3515625 0,-0.1992188 -0.14063,-0.3515625 -0.35157,-0.3632813 0.23438,-0.3046875 0.71485,-0.3867187 0.97266,-0.3867187 0.31641,0 0.76172,0.1523437 0.76172,0.7617187 0,0.2929688 -0.10547,0.609375 -0.28125,0.8320313 -0.23438,0.2578125 -0.42188,0.28125 -0.77344,0.2929687 -0.17578,0.023437 -0.1875,0.023437 -0.22265,0.023437 -0.0117,0 -0.0703,0.011719 -0.0703,0.09375 0,0.09375 0.0586,0.09375 0.17578,0.09375 z m 0,0"
           style="fill:#000000;fill-opacity:1;fill-rule:nonzero;stroke:none" /><path
           id="path16"
           d="m 198.89394,2.389425 c 0,-0.035156 0,-0.046875 -0.16406,-0.2226562 -1.24219,-1.2539063 -1.57031,-3.1289063 -1.57031,-4.6640625 0,-1.7226563 0.38672,-3.4570313 1.60547,-4.7109375 0.1289,-0.1171875 0.1289,-0.1289063 0.1289,-0.1640625 0,-0.070312 -0.0351,-0.1054688 -0.0937,-0.1054688 -0.10547,0 -0.99609,0.6796875 -1.58203,1.9453125 -0.51562,1.1015625 -0.63281,2.203125 -0.63281,3.0351563 0,0.7851562 0.11719,1.99218745 0.65625,3.11718745 0.59765,1.21875005 1.45312,1.87500005 1.55859,1.87500005 0.0586,0 0.0937,-0.035156 0.0937,-0.1054688 z m 0,0"
           style="fill:#000000;fill-opacity:1;fill-rule:nonzero;stroke:none" /><path
           id="path17"
           d="m 205.76699,-5.7551062 c 0.0937,-0.4101563 0.28125,-0.7148438 1.07812,-0.7382813 0.0469,0 0.16407,-0.011719 0.16407,-0.1992187 0,-0.011719 0,-0.1171875 -0.12891,-0.1171875 -0.32813,0 -0.67969,0.035156 -1.01953,0.035156 -0.33985,0 -0.70313,-0.035156 -1.03125,-0.035156 -0.0586,0 -0.17578,0 -0.17578,0.1992187 0,0.1171875 0.0937,0.1171875 0.17578,0.1171875 0.5625,0.011719 0.67969,0.2109375 0.67969,0.4335938 0,0.035156 -0.0234,0.1757812 -0.0352,0.2109375 l -0.89063,3.5507812 c -0.33984,1.3359375 -1.48828,2.203125 -2.48437,2.203125 -0.67969,0 -1.21875,-0.43359375 -1.21875,-1.2890625 0,-0.023437 0,-0.3398437 0.11719,-0.7734375 l 0.96093,-3.8789062 c 0.0937,-0.3632813 0.10547,-0.4570313 0.83204,-0.4570313 0.26953,0 0.33984,0 0.33984,-0.1992187 0,-0.1171875 -0.10547,-0.1171875 -0.14063,-0.1171875 -0.26953,0 -0.99609,0.035156 -1.26562,0.035156 -0.29297,0 -0.99609,-0.035156 -1.28906,-0.035156 -0.082,0 -0.1875,0 -0.1875,0.1992187 0,0.1171875 0.0937,0.1171875 0.28125,0.1171875 0.0117,0 0.21093,0 0.375,0.011719 0.17578,0.023437 0.26953,0.035156 0.26953,0.1640625 0,0.058594 -0.10547,0.4804687 -0.17578,0.703125 l -0.21094,0.8789062 c -0.0937,0.3867188 -0.57422,2.2734375 -0.60938,2.4609375 -0.0703,0.28125 -0.0703,0.4335938 -0.0703,0.5742188 0,1.21874995 0.90235,1.92187495 1.95703,1.92187495 1.25391,0 2.48438,-1.125 2.8125,-2.44921875 z m 0,0"
           style="fill:#000000;fill-opacity:1;fill-rule:nonzero;stroke:none" /><path
           id="path18"
           d="m 210.24355,-2.4972937 c 0,-0.7734375 -0.11719,-1.9804688 -0.65625,-3.1054688 -0.59766,-1.21875 -1.46484,-1.875 -1.55859,-1.875 -0.0586,0 -0.10547,0.046875 -0.10547,0.1054688 0,0.035156 0,0.046875 0.19922,0.234375 0.97265,0.984375 1.53515,2.5664062 1.53515,4.640625 0,1.71093745 -0.36328,3.4570312 -1.59375,4.7226562 -0.14062,0.1171875 -0.14062,0.1289063 -0.14062,0.1640625 0,0.058594 0.0469,0.1054688 0.10547,0.1054688 0.0937,0 0.99609,-0.6796875 1.58203,-1.94531255 0.5039,-1.1015625 0.63281,-2.20312495 0.63281,-3.04687495 z m 0,0"
           style="fill:#000000;fill-opacity:1;fill-rule:nonzero;stroke:none" /><path
           id="path19"
           d="m 5.2650353,28.355245 c 0,-0.02344 -0.023437,-0.09375 -0.1054687,-0.09375 -0.035156,0 -0.046875,0.01172 -0.1523438,0.117188 l -0.703125,0.761719 c -0.082031,-0.140625 -0.5390625,-0.878907 -1.6523437,-0.878907 -2.21484379,0 -4.453125,2.203125 -4.453125,4.511719 0,1.640625 1.17187496,2.730469 2.69531246,2.730469 0.86718754,0 1.61718754,-0.398438 2.14453124,-0.855469 0.9375,-0.820312 1.1015625,-1.722656 1.1015625,-1.757812 0,-0.105469 -0.1054687,-0.105469 -0.1171875,-0.105469 -0.058594,0 -0.1171875,0.02344 -0.1289062,0.105469 -0.09375,0.292968 -0.3164063,0.996093 -1.0078125,1.570312 -0.6914063,0.5625 -1.3125,0.726563 -1.8398438,0.726563 -0.89062499,0 -1.94531249,-0.515625 -1.94531249,-2.0625 0,-0.574219 0.2109375,-2.191407 1.20703125,-3.351563 0.609375,-0.703125 1.53515624,-1.207031 2.42578124,-1.207031 1.0195313,0 1.6054688,0.773437 1.6054688,1.921875 0,0.398437 -0.035156,0.410156 -0.035156,0.503906 0,0.105469 0.1171875,0.105469 0.1523438,0.105469 0.1289062,0 0.1289062,-0.02344 0.1757812,-0.199219 z m 0,0"
           style="fill:#000000;fill-opacity:1;fill-rule:nonzero;stroke:none" /><path
           id="path20"
           d="m 9.5277306,29.770284 c -0.375,-0.433593 -0.4804687,-0.550781 -0.75,-0.738281 -0.421875,-0.304687 -0.8671875,-0.421875 -1.2539062,-0.421875 -0.8671875,0 -1.4882813,0.738281 -1.4882813,1.570313 0,0.820312 0.5976563,1.570312 1.4648438,1.570312 0.9726562,0 1.6523437,-0.796875 1.8984375,-1.160156 0.375,0.421875 0.4804687,0.550781 0.7499996,0.738281 0.421875,0.304688 0.867188,0.421875 1.253907,0.421875 0.867187,0 1.488281,-0.738281 1.488281,-1.582031 0,-0.808594 -0.597656,-1.558594 -1.464844,-1.558594 -0.972656,0 -1.6523436,0.785156 -1.8984374,1.160156 z m 0.2226563,0.257813 c 0.2812501,-0.457031 0.8906251,-1.160156 1.7343751,-1.160156 0.714844,0 1.21875,0.632812 1.21875,1.300781 0,0.679687 -0.550781,1.195312 -1.195313,1.195312 -0.644531,0 -1.089843,-0.527343 -1.7578121,-1.335937 z m -0.5742188,0.304687 c -0.28125,0.445313 -0.8789062,1.148438 -1.734375,1.148438 -0.7148437,0 -1.21875,-0.632813 -1.21875,-1.300781 0,-0.667969 0.5507813,-1.195313 1.1953125,-1.195313 0.6445313,0 1.0898438,0.539063 1.7578125,1.347656 z m 0,0"
           style="fill:#000000;fill-opacity:1;fill-rule:nonzero;stroke:none" /><path
           id="path21"
           d="m 17.308981,37.671652 c 0,-0.03516 0,-0.04687 -0.164063,-0.222657 -1.242187,-1.253906 -1.570312,-3.128906 -1.570312,-4.664062 0,-1.722656 0.386718,-3.457031 1.605468,-4.710938 0.128907,-0.117187 0.128907,-0.128906 0.128907,-0.164062 0,-0.07031 -0.03516,-0.105469 -0.09375,-0.105469 -0.105469,0 -0.996094,0.679688 -1.582032,1.945313 -0.515625,1.101562 -0.632812,2.203125 -0.632812,3.035156 0,0.785156 0.117187,1.992187 0.65625,3.117187 0.597656,1.21875 1.453125,1.875 1.558594,1.875 0.05859,0 0.09375,-0.03516 0.09375,-0.105468 z m 0,0"
           style="fill:#000000;fill-opacity:1;fill-rule:nonzero;stroke:none" /><path
           id="path22"
           d="m 24.184957,29.52712 c 0.09375,-0.410156 0.28125,-0.714843 1.078125,-0.738281 0.04687,0 0.164063,-0.01172 0.164063,-0.199219 0,-0.01172 0,-0.117187 -0.128907,-0.117187 -0.328125,0 -0.679687,0.03516 -1.019531,0.03516 -0.339844,0 -0.703125,-0.03516 -1.03125,-0.03516 -0.05859,0 -0.175781,0 -0.175781,0.199219 0,0.117187 0.09375,0.117187 0.175781,0.117187 0.5625,0.01172 0.679688,0.210938 0.679688,0.433594 0,0.03516 -0.02344,0.175781 -0.03516,0.210937 l -0.890625,3.550782 c -0.339843,1.335937 -1.488281,2.203125 -2.484375,2.203125 -0.679687,0 -1.21875,-0.433594 -1.21875,-1.289063 0,-0.02344 0,-0.339844 0.117188,-0.773437 L 20.37636,29.24587 c 0.09375,-0.363281 0.105469,-0.457031 0.832032,-0.457031 0.269531,0 0.339843,0 0.339843,-0.199219 0,-0.117187 -0.105468,-0.117187 -0.140625,-0.117187 -0.269531,0 -0.996093,0.03516 -1.265625,0.03516 -0.292968,0 -0.996093,-0.03516 -1.289062,-0.03516 -0.08203,0 -0.1875,0 -0.1875,0.199219 0,0.117187 0.09375,0.117187 0.28125,0.117187 0.01172,0 0.210937,0 0.375,0.01172 0.175781,0.02344 0.269531,0.03516 0.269531,0.164062 0,0.05859 -0.105469,0.480469 -0.175781,0.703125 l -0.210938,0.878907 c -0.09375,0.386718 -0.574218,2.273437 -0.609375,2.460937 -0.07031,0.28125 -0.07031,0.433594 -0.07031,0.574219 0,1.21875 0.902344,1.921875 1.957031,1.921875 1.253906,0 2.484375,-1.125 2.8125,-2.449219 z m 0,0"
           style="fill:#000000;fill-opacity:1;fill-rule:nonzero;stroke:none" /><path
           id="path23"
           d="m 28.65859,32.784933 c 0,-0.773438 -0.117188,-1.980469 -0.65625,-3.105469 -0.597656,-1.21875 -1.464844,-1.875 -1.558594,-1.875 -0.05859,0 -0.105469,0.04687 -0.105469,0.105469 0,0.03516 0,0.04687 0.199219,0.234375 0.972656,0.984375 1.535156,2.566406 1.535156,4.640625 0,1.710937 -0.363281,3.457031 -1.59375,4.722656 -0.140625,0.117188 -0.140625,0.128906 -0.140625,0.164063 0,0.05859 0.04687,0.105468 0.105469,0.105468 0.09375,0 0.996094,-0.679687 1.582031,-1.945312 0.503907,-1.101563 0.632813,-2.203125 0.632813,-3.046875 z m 0,0"
           style="fill:#000000;fill-opacity:1;fill-rule:nonzero;stroke:none" /><path
           id="path24"
           d="m 65.062887,30.031027 0.175781,0.152343 c 0.316406,-0.410156 0.703125,-0.820312 1.277344,-0.820312 0.574219,0 0.996094,0.667969 1.066406,1.195312 0.05859,0.363282 0.05859,0.703125 0.05859,1.066407 h -1.394531 l -0.363282,0.421875 c 0.585938,-0.08203 1.160157,-0.08203 1.757813,-0.08203 0,0.867188 -0.128906,1.78125 -0.726563,2.367188 -0.257812,0.257812 -0.597656,0.46875 -0.984375,0.46875 -0.339843,0 -0.632812,-0.222656 -0.785156,-0.527344 l -0.585937,0.691406 c 0.1875,0.292969 0.492187,0.539063 0.84375,0.539063 0.316406,0 0.679687,-0.246094 0.960937,-0.433594 0.386719,-0.257812 0.738281,-0.574219 1.066406,-0.902344 l 0.410157,-0.421875 c 0.175781,0.832032 0.65625,1.804688 1.59375,1.804688 0.117187,0 0.328125,-0.05859 0.480468,-0.105469 l 1.113282,-0.902344 v -0.222656 c -0.328125,0.222656 -0.667969,0.433594 -1.054688,0.433594 -1.394531,0 -1.652344,-1.828125 -1.652344,-2.789063 0.457032,0.01172 0.925782,0.02344 1.382813,0.08203 l 0.375,-0.421875 h -1.757813 c 0,-0.914063 0.316407,-1.96875 1.066407,-2.484375 0.117187,0.304687 0.597656,0.726562 0.949218,0.890625 l 1.019532,-0.574219 v -0.1875 c -0.140625,0.07031 -0.328125,0.152344 -0.433594,0.152344 -0.421875,0 -0.5625,-0.609375 -0.773438,-1.007813 -0.796875,0.328125 -1.488281,0.925781 -1.875,1.722656 0,-0.01172 -0.01172,-0.03516 -0.01172,-0.05859 -0.105469,-0.410157 -0.222657,-0.867188 -0.527344,-1.160157 -0.304688,-0.316406 -0.75,-0.445312 -1.195313,-0.46875 z m 0,0"
           style="fill:#000000;fill-opacity:1;fill-rule:nonzero;stroke:none" /><path
           id="path25"
           d="m 74.78359,37.671652 c 0,-0.03516 0,-0.04687 -0.164062,-0.222657 -1.242188,-1.253906 -1.570313,-3.128906 -1.570313,-4.664062 0,-1.722656 0.386719,-3.457031 1.605469,-4.710938 0.128906,-0.117187 0.128906,-0.128906 0.128906,-0.164062 0,-0.07031 -0.03516,-0.105469 -0.09375,-0.105469 -0.105469,0 -0.996094,0.679688 -1.582031,1.945313 -0.515625,1.101562 -0.632813,2.203125 -0.632813,3.035156 0,0.785156 0.117188,1.992187 0.65625,3.117187 0.597657,1.21875 1.453125,1.875 1.558594,1.875 0.05859,0 0.09375,-0.03516 0.09375,-0.105468 z m 0,0"
           style="fill:#000000;fill-opacity:1;fill-rule:nonzero;stroke:none" /><path
           id="path26"
           d="m 81.656637,29.52712 c 0.09375,-0.410156 0.28125,-0.714843 1.078125,-0.738281 0.04687,0 0.164062,-0.01172 0.164062,-0.199219 0,-0.01172 0,-0.117187 -0.128906,-0.117187 -0.328125,0 -0.679687,0.03516 -1.019531,0.03516 -0.339844,0 -0.703125,-0.03516 -1.03125,-0.03516 -0.05859,0 -0.175781,0 -0.175781,0.199219 0,0.117187 0.09375,0.117187 0.175781,0.117187 0.5625,0.01172 0.679687,0.210938 0.679687,0.433594 0,0.03516 -0.02344,0.175781 -0.03516,0.210937 l -0.890625,3.550782 c -0.339844,1.335937 -1.488281,2.203125 -2.484375,2.203125 -0.679687,0 -1.21875,-0.433594 -1.21875,-1.289063 0,-0.02344 0,-0.339844 0.117188,-0.773437 l 0.960937,-3.878907 c 0.09375,-0.363281 0.105469,-0.457031 0.832031,-0.457031 0.269532,0 0.339844,0 0.339844,-0.199219 0,-0.117187 -0.105469,-0.117187 -0.140625,-0.117187 -0.269531,0 -0.996094,0.03516 -1.265625,0.03516 -0.292969,0 -0.996094,-0.03516 -1.289062,-0.03516 -0.08203,0 -0.1875,0 -0.1875,0.199219 0,0.117187 0.09375,0.117187 0.28125,0.117187 0.01172,0 0.210937,0 0.375,0.01172 0.175781,0.02344 0.269531,0.03516 0.269531,0.164062 0,0.05859 -0.105469,0.480469 -0.175781,0.703125 l -0.210938,0.878907 c -0.09375,0.386718 -0.574219,2.273437 -0.609375,2.460937 -0.07031,0.28125 -0.07031,0.433594 -0.07031,0.574219 0,1.21875 0.902343,1.921875 1.957031,1.921875 1.253906,0 2.484375,-1.125 2.8125,-2.449219 z m 0,0"
           style="fill:#000000;fill-opacity:1;fill-rule:nonzero;stroke:none" /><path
           id="path27"
           d="m 86.133199,32.784933 c 0,-0.773438 -0.117187,-1.980469 -0.65625,-3.105469 -0.597656,-1.21875 -1.464843,-1.875 -1.558593,-1.875 -0.05859,0 -0.105469,0.04687 -0.105469,0.105469 0,0.03516 0,0.04687 0.199219,0.234375 0.972656,0.984375 1.535156,2.566406 1.535156,4.640625 0,1.710937 -0.363281,3.457031 -1.59375,4.722656 -0.140625,0.117188 -0.140625,0.128906 -0.140625,0.164063 0,0.05859 0.04687,0.105468 0.105469,0.105468 0.09375,0 0.996093,-0.679687 1.582031,-1.945312 0.503906,-1.101563 0.632812,-2.203125 0.632812,-3.046875 z m 0,0"
           style="fill:#000000;fill-opacity:1;fill-rule:nonzero;stroke:none" /><path
           id="path28"
           d="m 124.94277,30.031027 0.17578,0.152343 c 0.31641,-0.410156 0.70313,-0.820312 1.27734,-0.820312 0.57422,0 0.9961,0.667969 1.06641,1.195312 0.0586,0.363282 0.0586,0.703125 0.0586,1.066407 h -1.39453 l -0.36328,0.421875 c 0.58594,-0.08203 1.16016,-0.08203 1.75781,-0.08203 0,0.867188 -0.1289,1.78125 -0.72656,2.367188 -0.25781,0.257812 -0.59765,0.46875 -0.98437,0.46875 -0.33985,0 -0.63282,-0.222656 -0.78516,-0.527344 l -0.58594,0.691406 c 0.1875,0.292969 0.49219,0.539063 0.84375,0.539063 0.31641,0 0.67969,-0.246094 0.96094,-0.433594 0.38672,-0.257812 0.73828,-0.574219 1.06641,-0.902344 l 0.41015,-0.421875 c 0.17578,0.832032 0.65625,1.804688 1.59375,1.804688 0.11719,0 0.32813,-0.05859 0.48047,-0.105469 l 1.11328,-0.902344 v -0.222656 c -0.32812,0.222656 -0.66797,0.433594 -1.05468,0.433594 -1.39454,0 -1.65235,-1.828125 -1.65235,-2.789063 0.45703,0.01172 0.92578,0.02344 1.38281,0.08203 l 0.375,-0.421875 h -1.75781 c 0,-0.914063 0.31641,-1.96875 1.06641,-2.484375 0.11719,0.304687 0.59765,0.726562 0.94922,0.890625 l 1.01953,-0.574219 v -0.1875 c -0.14063,0.07031 -0.32813,0.152344 -0.4336,0.152344 -0.42187,0 -0.5625,-0.609375 -0.77343,-1.007813 -0.79688,0.328125 -1.48828,0.925781 -1.875,1.722656 0,-0.01172 -0.0117,-0.03516 -0.0117,-0.05859 -0.10547,-0.410157 -0.22266,-0.867188 -0.52735,-1.160157 -0.30468,-0.316406 -0.75,-0.445312 -1.19531,-0.46875 z m 0,0"
           style="fill:#000000;fill-opacity:1;fill-rule:nonzero;stroke:none" /><path
           id="path29"
           d="m 134.66347,37.671652 c 0,-0.03516 0,-0.04687 -0.16406,-0.222657 -1.24219,-1.253906 -1.57031,-3.128906 -1.57031,-4.664062 0,-1.722656 0.38672,-3.457031 1.60547,-4.710938 0.1289,-0.117187 0.1289,-0.128906 0.1289,-0.164062 0,-0.07031 -0.0351,-0.105469 -0.0937,-0.105469 -0.10547,0 -0.99609,0.679688 -1.58203,1.945313 -0.51562,1.101562 -0.63281,2.203125 -0.63281,3.035156 0,0.785156 0.11719,1.992187 0.65625,3.117187 0.59766,1.21875 1.45312,1.875 1.55859,1.875 0.0586,0 0.0937,-0.03516 0.0937,-0.105468 z m 0,0"
           style="fill:#000000;fill-opacity:1;fill-rule:nonzero;stroke:none" /><path
           id="path30"
           d="m 141.53652,29.52712 c 0.0937,-0.410156 0.28125,-0.714843 1.07812,-0.738281 0.0469,0 0.16407,-0.01172 0.16407,-0.199219 0,-0.01172 0,-0.117187 -0.12891,-0.117187 -0.32812,0 -0.67969,0.03516 -1.01953,0.03516 -0.33984,0 -0.70313,-0.03516 -1.03125,-0.03516 -0.0586,0 -0.17578,0 -0.17578,0.199219 0,0.117187 0.0937,0.117187 0.17578,0.117187 0.5625,0.01172 0.67969,0.210938 0.67969,0.433594 0,0.03516 -0.0234,0.175781 -0.0352,0.210937 l -0.89062,3.550782 c -0.33985,1.335937 -1.48829,2.203125 -2.48438,2.203125 -0.67969,0 -1.21875,-0.433594 -1.21875,-1.289063 0,-0.02344 0,-0.339844 0.11719,-0.773437 l 0.96094,-3.878907 c 0.0937,-0.363281 0.10546,-0.457031 0.83203,-0.457031 0.26953,0 0.33984,0 0.33984,-0.199219 0,-0.117187 -0.10547,-0.117187 -0.14062,-0.117187 -0.26954,0 -0.9961,0.03516 -1.26563,0.03516 -0.29297,0 -0.99609,-0.03516 -1.28906,-0.03516 -0.082,0 -0.1875,0 -0.1875,0.199219 0,0.117187 0.0937,0.117187 0.28125,0.117187 0.0117,0 0.21094,0 0.375,0.01172 0.17578,0.02344 0.26953,0.03516 0.26953,0.164062 0,0.05859 -0.10547,0.480469 -0.17578,0.703125 l -0.21094,0.878907 c -0.0937,0.386718 -0.57422,2.273437 -0.60937,2.460937 -0.0703,0.28125 -0.0703,0.433594 -0.0703,0.574219 0,1.21875 0.90235,1.921875 1.95703,1.921875 1.25391,0 2.48438,-1.125 2.8125,-2.449219 z m 0,0"
           style="fill:#000000;fill-opacity:1;fill-rule:nonzero;stroke:none" /><path
           id="path31"
           d="m 146.01308,32.784933 c 0,-0.773438 -0.11719,-1.980469 -0.65625,-3.105469 -0.59765,-1.21875 -1.46484,-1.875 -1.55859,-1.875 -0.0586,0 -0.10547,0.04687 -0.10547,0.105469 0,0.03516 0,0.04687 0.19922,0.234375 0.97265,0.984375 1.53515,2.566406 1.53515,4.640625 0,1.710937 -0.36328,3.457031 -1.59375,4.722656 -0.14062,0.117188 -0.14062,0.128906 -0.14062,0.164063 0,0.05859 0.0469,0.105468 0.10547,0.105468 0.0937,0 0.99609,-0.679687 1.58203,-1.945312 0.50391,-1.101563 0.63281,-2.203125 0.63281,-3.046875 z m 0,0"
           style="fill:#000000;fill-opacity:1;fill-rule:nonzero;stroke:none" /><path
           id="path32"
           d="m 189.22597,28.355245 c 0,-0.02344 -0.0234,-0.09375 -0.10547,-0.09375 -0.0351,0 -0.0469,0.01172 -0.15234,0.117188 l -0.70312,0.761719 c -0.082,-0.140625 -0.53907,-0.878907 -1.65235,-0.878907 -2.21484,0 -4.45312,2.203125 -4.45312,4.511719 0,1.640625 1.17187,2.730469 2.69531,2.730469 0.86719,0 1.61719,-0.398438 2.14453,-0.855469 0.9375,-0.820312 1.10156,-1.722656 1.10156,-1.757812 0,-0.105469 -0.10547,-0.105469 -0.11718,-0.105469 -0.0586,0 -0.11719,0.02344 -0.12891,0.105469 -0.0937,0.292968 -0.31641,0.996093 -1.00781,1.570312 -0.69141,0.5625 -1.3125,0.726563 -1.83985,0.726563 -0.89062,0 -1.94531,-0.515625 -1.94531,-2.0625 0,-0.574219 0.21094,-2.191407 1.20703,-3.351563 0.60938,-0.703125 1.53516,-1.207031 2.42578,-1.207031 1.01953,0 1.60547,0.773437 1.60547,1.921875 0,0.398437 -0.0351,0.410156 -0.0351,0.503906 0,0.105469 0.11718,0.105469 0.15234,0.105469 0.12891,0 0.12891,-0.02344 0.17578,-0.199219 z m 0,0"
           style="fill:#000000;fill-opacity:1;fill-rule:nonzero;stroke:none" /><path
           id="path33"
           d="m 193.48574,29.770284 c -0.375,-0.433593 -0.48047,-0.550781 -0.75,-0.738281 -0.42188,-0.304687 -0.86719,-0.421875 -1.25391,-0.421875 -0.86719,0 -1.48828,0.738281 -1.48828,1.570313 0,0.820312 0.59766,1.570312 1.46484,1.570312 0.97266,0 1.65235,-0.796875 1.89844,-1.160156 0.375,0.421875 0.48047,0.550781 0.75,0.738281 0.42188,0.304688 0.86719,0.421875 1.25391,0.421875 0.86719,0 1.48828,-0.738281 1.48828,-1.582031 0,-0.808594 -0.59766,-1.558594 -1.46484,-1.558594 -0.97266,0 -1.65235,0.785156 -1.89844,1.160156 z m 0.22265,0.257813 c 0.28125,-0.457031 0.89063,-1.160156 1.73438,-1.160156 0.71484,0 1.21875,0.632812 1.21875,1.300781 0,0.679687 -0.55078,1.195312 -1.19531,1.195312 -0.64453,0 -1.08985,-0.527343 -1.75782,-1.335937 z m -0.57421,0.304687 c -0.28125,0.445313 -0.87891,1.148438 -1.73438,1.148438 -0.71484,0 -1.21875,-0.632813 -1.21875,-1.300781 0,-0.667969 0.55078,-1.195313 1.19531,-1.195313 0.64453,0 1.08985,0.539063 1.75782,1.347656 z m 0,0"
           style="fill:#000000;fill-opacity:1;fill-rule:nonzero;stroke:none" /><path
           id="path34"
           d="m 201.26699,37.671652 c 0,-0.03516 0,-0.04687 -0.16406,-0.222657 -1.24219,-1.253906 -1.57032,-3.128906 -1.57032,-4.664062 0,-1.722656 0.38672,-3.457031 1.60547,-4.710938 0.12891,-0.117187 0.12891,-0.128906 0.12891,-0.164062 0,-0.07031 -0.0352,-0.105469 -0.0937,-0.105469 -0.10547,0 -0.9961,0.679688 -1.58203,1.945313 -0.51563,1.101562 -0.63282,2.203125 -0.63282,3.035156 0,0.785156 0.11719,1.992187 0.65625,3.117187 0.59766,1.21875 1.45313,1.875 1.5586,1.875 0.0586,0 0.0937,-0.03516 0.0937,-0.105468 z m 0,0"
           style="fill:#000000;fill-opacity:1;fill-rule:nonzero;stroke:none" /><path
           id="path35"
           d="m 208.14296,29.52712 c 0.0937,-0.410156 0.28125,-0.714843 1.07813,-0.738281 0.0469,0 0.16406,-0.01172 0.16406,-0.199219 0,-0.01172 0,-0.117187 -0.1289,-0.117187 -0.32813,0 -0.67969,0.03516 -1.01954,0.03516 -0.33984,0 -0.70312,-0.03516 -1.03125,-0.03516 -0.0586,0 -0.17578,0 -0.17578,0.199219 0,0.117187 0.0937,0.117187 0.17578,0.117187 0.5625,0.01172 0.67969,0.210938 0.67969,0.433594 0,0.03516 -0.0234,0.175781 -0.0352,0.210937 l -0.89063,3.550782 c -0.33984,1.335937 -1.48828,2.203125 -2.48437,2.203125 -0.67969,0 -1.21875,-0.433594 -1.21875,-1.289063 0,-0.02344 0,-0.339844 0.11718,-0.773437 l 0.96094,-3.878907 c 0.0937,-0.363281 0.10547,-0.457031 0.83203,-0.457031 0.26953,0 0.33985,0 0.33985,-0.199219 0,-0.117187 -0.10547,-0.117187 -0.14063,-0.117187 -0.26953,0 -0.99609,0.03516 -1.26562,0.03516 -0.29297,0 -0.9961,-0.03516 -1.28907,-0.03516 -0.082,0 -0.1875,0 -0.1875,0.199219 0,0.117187 0.0937,0.117187 0.28125,0.117187 0.0117,0 0.21094,0 0.375,0.01172 0.17578,0.02344 0.26953,0.03516 0.26953,0.164062 0,0.05859 -0.10546,0.480469 -0.17578,0.703125 l -0.21093,0.878907 c -0.0937,0.386718 -0.57422,2.273437 -0.60938,2.460937 -0.0703,0.28125 -0.0703,0.433594 -0.0703,0.574219 0,1.21875 0.90234,1.921875 1.95703,1.921875 1.25391,0 2.48437,-1.125 2.8125,-2.449219 z m 0,0"
           style="fill:#000000;fill-opacity:1;fill-rule:nonzero;stroke:none" /><path
           id="path36"
           d="m 212.6166,32.784933 c 0,-0.773438 -0.11719,-1.980469 -0.65625,-3.105469 -0.59766,-1.21875 -1.46485,-1.875 -1.5586,-1.875 -0.0586,0 -0.10546,0.04687 -0.10546,0.105469 0,0.03516 0,0.04687 0.19921,0.234375 0.97266,0.984375 1.53516,2.566406 1.53516,4.640625 0,1.710937 -0.36328,3.457031 -1.59375,4.722656 -0.14062,0.117188 -0.14062,0.128906 -0.14062,0.164063 0,0.05859 0.0469,0.105468 0.10546,0.105468 0.0937,0 0.9961,-0.679687 1.58204,-1.945312 0.5039,-1.101563 0.63281,-2.203125 0.63281,-3.046875 z m 0,0"
           style="fill:#000000;fill-opacity:1;fill-rule:nonzero;stroke:none" /></g><path
         id="path37"
         d="m -633.75256,107.58041 h 33.89106"
         style="fill:none;stroke:#000000;stroke-width:0.531307;stroke-linecap:butt;stroke-linejoin:miter;stroke-miterlimit:10;stroke-dasharray:none;stroke-opacity:1" /><path
         id="path38"
         d="m -602.35883,104.39241 c 0.50466,1.91307 1.6296,2.81613 2.76293,3.188 -1.13333,0.37187 -2.25827,1.27507 -2.76293,3.18813"
         style="fill:none;stroke:#000000;stroke-width:0.531307;stroke-linecap:round;stroke-linejoin:round;stroke-miterlimit:10;stroke-dasharray:none;stroke-opacity:1" /><path
         id="path39"
         d="m -613.99221,98.281246 c 0,-0.01563 0.0312,-0.140625 0.0312,-0.15625 0,-0.04687 -0.0312,-0.125 -0.14062,-0.125 -0.1875,0 -0.96875,0.07813 -1.20313,0.09375 -0.0625,0.01563 -0.20312,0.01563 -0.20312,0.21875 0,0.125 0.14062,0.125 0.25,0.125 0.4375,0 0.4375,0.0625 0.4375,0.140625 0,0.0625 -0.0156,0.125 -0.0312,0.203125 l -0.53125,2.125004 c -0.1875,-0.3125 -0.51563,-0.54688 -0.95313,-0.54688 -1.1875,0 -2.40625,1.29688 -2.40625,2.64063 0,0.90625 0.60938,1.54687 1.40625,1.54687 0.5,0 0.95313,-0.28125 1.32813,-0.65625 0.17187,0.5625 0.70312,0.65625 0.95312,0.65625 0.32813,0 0.5625,-0.20312 0.73438,-0.5 0.20312,-0.35937 0.32812,-0.89062 0.32812,-0.92187 0,-0.125 -0.125,-0.125 -0.15625,-0.125 -0.125,0 -0.14062,0.0469 -0.20312,0.29687 -0.10938,0.4375 -0.28125,0.98438 -0.67188,0.98438 -0.25,0 -0.3125,-0.20313 -0.3125,-0.45313 0,-0.17187 0.0156,-0.26562 0.0469,-0.375 z m -1.98437,5.015624 c -0.0625,0.25 -0.26563,0.4375 -0.46875,0.60938 -0.0937,0.0781 -0.45313,0.375 -0.85938,0.375 -0.34375,0 -0.6875,-0.23438 -0.6875,-0.89063 0,-0.5 0.28125,-1.51562 0.48438,-1.89062 0.4375,-0.75 0.90625,-0.89063 1.17187,-0.89063 0.64063,0 0.82813,0.70313 0.82813,0.8125 0,0.0312 -0.0156,0.10938 -0.0312,0.125 z m 0,0"
         style="fill:#000000;fill-opacity:1;fill-rule:nonzero;stroke:none;stroke-width:1.33333"
         aria-label="d" /><path
         id="path40"
         d="m -657.9391,119.34921 v 22.8484"
         style="fill:none;stroke:#000000;stroke-width:0.531307;stroke-linecap:butt;stroke-linejoin:miter;stroke-miterlimit:10;stroke-dasharray:none;stroke-opacity:1" /><path
         id="path41"
         d="m -654.7511,139.70028 c -1.91293,0.50466 -2.81613,1.62973 -3.188,2.76306 -0.37186,-1.13333 -1.27493,-2.2584 -3.188,-2.76306"
         style="fill:none;stroke:#000000;stroke-width:0.531307;stroke-linecap:round;stroke-linejoin:round;stroke-miterlimit:10;stroke-dasharray:none;stroke-opacity:1" /><path
         id="path42"
         d="m -661.78908,129.10156 c 0,-0.34375 -0.125,-0.34375 -0.15625,-0.34375 -0.0937,0 -0.15625,0.15625 -0.15625,0.25 -0.0156,0.1875 -0.0469,0.625 -0.40625,0.95313 -0.35938,0.34375 -0.71875,0.40625 -1,0.40625 -0.64063,0 -1.09375,-0.34375 -1.78125,-0.875 -0.46875,-0.35938 -1,-0.75 -1.64063,-0.75 -1,0 -1.71875,0.90625 -1.71875,1.90625 0,0.32812 0.125,0.35937 0.15625,0.35937 0.0937,0 0.14063,-0.1875 0.15625,-0.25 0.0156,-0.1875 0.0312,-0.625 0.40625,-0.96875 0.35938,-0.34375 0.71875,-0.40625 1,-0.40625 0.625,0 1.09375,0.35938 1.78125,0.89063 0.45313,0.34375 1,0.73437 1.64063,0.73437 1,0 1.71875,-0.89062 1.71875,-1.90625 z m -6.48438,3.71875 c -0.15625,0 -0.375,0 -0.375,0.23438 0,0.21875 0.21875,0.21875 0.375,0.21875 h 6.10938 c 0.15625,0 0.375,0 0.375,-0.21875 0,-0.23438 -0.21875,-0.23438 -0.375,-0.23438 z m 0,0"
         style="fill:#000000;fill-opacity:1;fill-rule:nonzero;stroke:none;stroke-width:1.33333"
         aria-label="≃" /><path
         id="path43"
         d="m -550.9575,107.58041 h 30.81733"
         style="fill:none;stroke:#000000;stroke-width:0.531307;stroke-linecap:butt;stroke-linejoin:miter;stroke-miterlimit:10;stroke-dasharray:none;stroke-opacity:1" /><path
         id="path44"
         d="m -522.63617,104.39241 c 0.504,1.91307 1.62934,2.81613 2.76267,3.188 -1.13333,0.37187 -2.25867,1.27507 -2.76267,3.18813"
         style="fill:none;stroke:#000000;stroke-width:0.531307;stroke-linecap:round;stroke-linejoin:round;stroke-miterlimit:10;stroke-dasharray:none;stroke-opacity:1" /><path
         id="path45"
         d="m -532.73439,98.281246 c 0,-0.01563 0.0312,-0.140625 0.0312,-0.15625 0,-0.04687 -0.0312,-0.125 -0.14062,-0.125 -0.1875,0 -0.96875,0.07813 -1.20313,0.09375 -0.0625,0.01563 -0.20312,0.01563 -0.20312,0.21875 0,0.125 0.14062,0.125 0.25,0.125 0.4375,0 0.4375,0.0625 0.4375,0.140625 0,0.0625 -0.0156,0.125 -0.0312,0.203125 l -0.53125,2.125004 c -0.1875,-0.3125 -0.51563,-0.54688 -0.95313,-0.54688 -1.1875,0 -2.40625,1.29688 -2.40625,2.64063 0,0.90625 0.60938,1.54687 1.40625,1.54687 0.5,0 0.95313,-0.28125 1.32813,-0.65625 0.17187,0.5625 0.70312,0.65625 0.95312,0.65625 0.32813,0 0.5625,-0.20312 0.73438,-0.5 0.20312,-0.35937 0.32812,-0.89062 0.32812,-0.92187 0,-0.125 -0.125,-0.125 -0.15625,-0.125 -0.125,0 -0.14062,0.0469 -0.20312,0.29687 -0.10938,0.4375 -0.28125,0.98438 -0.67188,0.98438 -0.25,0 -0.3125,-0.20313 -0.3125,-0.45313 0,-0.17187 0.0156,-0.26562 0.0469,-0.375 z m -1.98437,5.015624 c -0.0625,0.25 -0.26563,0.4375 -0.46875,0.60938 -0.0937,0.0781 -0.45313,0.375 -0.85938,0.375 -0.34375,0 -0.6875,-0.23438 -0.6875,-0.89063 0,-0.5 0.28125,-1.51562 0.48438,-1.89062 0.4375,-0.75 0.90625,-0.89063 1.17187,-0.89063 0.64063,0 0.82813,0.70313 0.82813,0.8125 0,0.0312 -0.0156,0.10938 -0.0312,0.125 z m 0,0"
         style="fill:#000000;fill-opacity:1;fill-rule:nonzero;stroke:none;stroke-width:1.33333"
         aria-label="d" /><path
         id="path46"
         d="m -575.14377,119.34921 v 22.8484"
         style="fill:none;stroke:#000000;stroke-width:0.531307;stroke-linecap:butt;stroke-linejoin:miter;stroke-miterlimit:10;stroke-dasharray:none;stroke-opacity:1" /><path
         id="path47"
         d="m -571.9563,139.70028 c -1.91253,0.50466 -2.8156,1.62973 -3.18747,2.76306 -0.3724,-1.13333 -1.27546,-2.2584 -3.188,-2.76306"
         style="fill:none;stroke:#000000;stroke-width:0.531307;stroke-linecap:round;stroke-linejoin:round;stroke-miterlimit:10;stroke-dasharray:none;stroke-opacity:1" /><path
         id="path48"
         d="m -578.99221,129.10156 c 0,-0.34375 -0.125,-0.34375 -0.15625,-0.34375 -0.0937,0 -0.15625,0.15625 -0.15625,0.25 -0.0156,0.1875 -0.0469,0.625 -0.40625,0.95313 -0.35937,0.34375 -0.71875,0.40625 -1,0.40625 -0.64062,0 -1.09375,-0.34375 -1.78125,-0.875 -0.46875,-0.35938 -1,-0.75 -1.64062,-0.75 -1,0 -1.71875,0.90625 -1.71875,1.90625 0,0.32812 0.125,0.35937 0.15625,0.35937 0.0937,0 0.14062,-0.1875 0.15625,-0.25 0.0156,-0.1875 0.0312,-0.625 0.40625,-0.96875 0.35937,-0.34375 0.71875,-0.40625 1,-0.40625 0.625,0 1.09375,0.35938 1.78125,0.89063 0.45312,0.34375 1,0.73437 1.64062,0.73437 1,0 1.71875,-0.89062 1.71875,-1.90625 z m -6.48437,3.71875 c -0.15625,0 -0.375,0 -0.375,0.23438 0,0.21875 0.21875,0.21875 0.375,0.21875 h 6.10937 c 0.15625,0 0.375,0 0.375,-0.21875 0,-0.23438 -0.21875,-0.23438 -0.375,-0.23438 z m 0,0"
         style="fill:#000000;fill-opacity:1;fill-rule:nonzero;stroke:none;stroke-width:1.33333"
         aria-label="≃" /><path
         id="path49"
         d="m -471.23484,107.58041 h 33.89067"
         style="fill:none;stroke:#000000;stroke-width:0.531307;stroke-linecap:butt;stroke-linejoin:miter;stroke-miterlimit:10;stroke-dasharray:none;stroke-opacity:1" /><path
         id="path50"
         d="m -439.8415,104.39241 c 0.50533,1.91307 1.62933,2.81613 2.76266,3.188 -1.13333,0.37187 -2.25733,1.27507 -2.76266,3.18813"
         style="fill:none;stroke:#000000;stroke-width:0.531307;stroke-linecap:round;stroke-linejoin:round;stroke-miterlimit:10;stroke-dasharray:none;stroke-opacity:1" /><path
         id="path51"
         d="m -451.47658,98.281246 c 0,-0.01563 0.0312,-0.140625 0.0312,-0.15625 0,-0.04687 -0.0312,-0.125 -0.14063,-0.125 -0.1875,0 -0.96875,0.07813 -1.20312,0.09375 -0.0625,0.01563 -0.20313,0.01563 -0.20313,0.21875 0,0.125 0.14063,0.125 0.25,0.125 0.4375,0 0.4375,0.0625 0.4375,0.140625 0,0.0625 -0.0156,0.125 -0.0312,0.203125 l -0.53125,2.125004 c -0.1875,-0.3125 -0.51562,-0.54688 -0.95312,-0.54688 -1.1875,0 -2.40625,1.29688 -2.40625,2.64063 0,0.90625 0.60937,1.54687 1.40625,1.54687 0.5,0 0.95312,-0.28125 1.32812,-0.65625 0.17188,0.5625 0.70313,0.65625 0.95313,0.65625 0.32812,0 0.5625,-0.20312 0.73437,-0.5 0.20313,-0.35937 0.32813,-0.89062 0.32813,-0.92187 0,-0.125 -0.125,-0.125 -0.15625,-0.125 -0.125,0 -0.14063,0.0469 -0.20313,0.29687 -0.10937,0.4375 -0.28125,0.98438 -0.67187,0.98438 -0.25,0 -0.3125,-0.20313 -0.3125,-0.45313 0,-0.17187 0.0156,-0.26562 0.0469,-0.375 z m -1.98438,5.015624 c -0.0625,0.25 -0.26562,0.4375 -0.46875,0.60938 -0.0937,0.0781 -0.45312,0.375 -0.85937,0.375 -0.34375,0 -0.6875,-0.23438 -0.6875,-0.89063 0,-0.5 0.28125,-1.51562 0.48437,-1.89062 0.4375,-0.75 0.90625,-0.89063 1.17188,-0.89063 0.64062,0 0.82812,0.70313 0.82812,0.8125 0,0.0312 -0.0156,0.10938 -0.0312,0.125 z m 0,0"
         style="fill:#000000;fill-opacity:1;fill-rule:nonzero;stroke:none;stroke-width:1.33333"
         aria-label="d" /><path
         id="path52"
         d="m -495.4215,119.34921 v 22.8484"
         style="fill:none;stroke:#000000;stroke-width:0.531307;stroke-linecap:butt;stroke-linejoin:miter;stroke-miterlimit:10;stroke-dasharray:none;stroke-opacity:1" /><path
         id="path53"
         d="m -492.2335,139.70028 c -1.91333,0.50466 -2.816,1.62973 -3.188,2.76306 -0.372,-1.13333 -1.276,-2.2584 -3.188,-2.76306"
         style="fill:none;stroke:#000000;stroke-width:0.531307;stroke-linecap:round;stroke-linejoin:round;stroke-miterlimit:10;stroke-dasharray:none;stroke-opacity:1" /><path
         id="path54"
         d="m -499.26955,129.10156 c 0,-0.34375 -0.125,-0.34375 -0.15625,-0.34375 -0.0937,0 -0.15625,0.15625 -0.15625,0.25 -0.0156,0.1875 -0.0469,0.625 -0.40625,0.95313 -0.35938,0.34375 -0.71875,0.40625 -1,0.40625 -0.64063,0 -1.09375,-0.34375 -1.78125,-0.875 -0.46875,-0.35938 -1,-0.75 -1.64063,-0.75 -1,0 -1.71875,0.90625 -1.71875,1.90625 0,0.32812 0.125,0.35937 0.15625,0.35937 0.0937,0 0.14063,-0.1875 0.15625,-0.25 0.0156,-0.1875 0.0312,-0.625 0.40625,-0.96875 0.35938,-0.34375 0.71875,-0.40625 1,-0.40625 0.625,0 1.09375,0.35938 1.78125,0.89063 0.45313,0.34375 1,0.73437 1.64063,0.73437 1,0 1.71875,-0.89062 1.71875,-1.90625 z m -6.48438,3.71875 c -0.15625,0 -0.375,0 -0.375,0.23438 0,0.21875 0.21875,0.21875 0.375,0.21875 h 6.10938 c 0.15625,0 0.375,0 0.375,-0.21875 0,-0.23438 -0.21875,-0.23438 -0.375,-0.23438 z m 0,0"
         style="fill:#000000;fill-opacity:1;fill-rule:nonzero;stroke:none;stroke-width:1.33333"
         aria-label="≃" /><path
         id="path55"
         d="m -412.62684,119.34921 v 22.8484"
         style="fill:none;stroke:#000000;stroke-width:0.531307;stroke-linecap:butt;stroke-linejoin:miter;stroke-miterlimit:10;stroke-dasharray:none;stroke-opacity:1" /><path
         id="path56"
         d="m -409.43884,139.70028 c -1.91333,0.50466 -2.816,1.62973 -3.188,2.76306 -0.372,-1.13333 -1.27466,-2.2584 -3.188,-2.76306"
         style="fill:none;stroke:#000000;stroke-width:0.531307;stroke-linecap:round;stroke-linejoin:round;stroke-miterlimit:10;stroke-dasharray:none;stroke-opacity:1" /><path
         id="path57"
         d="m -415.44776,129.10156 c 0,-0.34375 -0.125,-0.34375 -0.15625,-0.34375 -0.0937,0 -0.15625,0.15625 -0.15625,0.25 -0.0156,0.1875 -0.0469,0.625 -0.40625,0.95312 -0.35938,0.34375 -0.71875,0.40625 -1,0.40625 -0.64063,0 -1.09375,-0.34375 -1.78125,-0.875 -0.46875,-0.35937 -1,-0.75 -1.64063,-0.75 -1,0 -1.71875,0.90625 -1.71875,1.90625 0,0.32813 0.125,0.35938 0.15625,0.35938 0.0937,0 0.14063,-0.1875 0.15625,-0.25 0.0156,-0.1875 0.0312,-0.625 0.40625,-0.96875 0.35938,-0.34375 0.71875,-0.40625 1,-0.40625 0.625,0 1.09375,0.35937 1.78125,0.89062 0.45313,0.34375 1,0.73438 1.64063,0.73438 1,0 1.71875,-0.89063 1.71875,-1.90625 z m -6.48438,3.71875 c -0.15625,0 -0.375,0 -0.375,0.23437 0,0.21875 0.21875,0.21875 0.375,0.21875 h 6.10938 c 0.15625,0 0.375,0 0.375,-0.21875 0,-0.23437 -0.21875,-0.23437 -0.375,-0.23437 z m 0,0"
         style="fill:#000000;fill-opacity:1;fill-rule:nonzero;stroke:none;stroke-width:1.33333"
         aria-label="≃" /><path
         id="path58"
         d="m -630.67976,154.49765 h 33.81773"
         style="fill:none;stroke:#000000;stroke-width:0.531307;stroke-linecap:butt;stroke-linejoin:miter;stroke-miterlimit:10;stroke-dasharray:none;stroke-opacity:1" /><path
         id="path59"
         d="m -599.35937,151.30961 c 0.50467,1.91304 1.6296,2.81617 2.76294,3.18804 -1.13334,0.37188 -2.25827,1.275 -2.76294,3.18803"
         style="fill:none;stroke:#000000;stroke-width:0.531307;stroke-linecap:round;stroke-linejoin:round;stroke-miterlimit:10;stroke-dasharray:none;stroke-opacity:1" /><path
         id="path60"
         d="m -622.46486,147.90624 c 0.14063,0.0781 0.46875,0.29688 1.01563,0.29688 0.95312,0 1.64062,-0.65625 1.64062,-1.375 0,-0.35938 -0.15625,-0.65625 -0.39062,-0.89063 0.42187,-0.29687 0.78125,-0.3125 0.95312,-0.3125 -0.0469,0.0469 -0.0937,0.0781 -0.0937,0.23438 0,0.17187 0.14063,0.29687 0.29688,0.29687 0.14062,0 0.29687,-0.0937 0.29687,-0.3125 0,-0.21875 -0.17187,-0.46875 -0.54687,-0.46875 -0.14063,0 -0.64063,0.0156 -1.07813,0.42188 -0.28125,-0.20313 -0.67187,-0.32813 -1.07812,-0.32813 -0.95313,0 -1.65625,0.64063 -1.65625,1.35938 0,0.35937 0.1875,0.70312 0.45312,0.9375 -0.0781,0.0937 -0.28125,0.39062 -0.28125,0.75 0,0.125 0.0312,0.5625 0.39063,0.82812 -0.42188,0.14063 -0.90625,0.45313 -0.90625,0.9375 0,0.67188 1.03125,1.1875 2.28125,1.1875 1.1875,0 2.28125,-0.46875 2.28125,-1.20312 0,-0.28125 -0.10938,-0.78125 -0.625,-1.0625 -0.54688,-0.29688 -1.09375,-0.29688 -2,-0.29688 -0.20313,0 -0.54688,0 -0.60938,0 -0.29687,-0.0625 -0.46875,-0.34375 -0.46875,-0.625 0,-0.21875 0.0625,-0.29687 0.125,-0.375 z m 1.01563,0.0156 c -0.90625,0 -0.90625,-0.89063 -0.90625,-1.09375 0,-0.14063 0,-0.51563 0.1875,-0.76563 0.125,-0.15625 0.375,-0.32812 0.71875,-0.32812 0.90625,0 0.90625,0.90625 0.90625,1.09375 0,0.15625 0,0.51562 -0.1875,0.76562 -0.125,0.15625 -0.375,0.32813 -0.71875,0.32813 z m 0,1.60937 c 0.82812,0 1.98437,0 1.98437,0.73438 0,0.5 -0.73437,0.92187 -1.70312,0.92187 -0.96875,0 -1.70313,-0.4375 -1.70313,-0.92187 0,-0.32813 0.29688,-0.71875 0.89063,-0.73438 z m 4.76172,-2.09375 c 0,-0.78125 0.375,-1.71875 1.25,-1.71875 -0.0781,0.0625 -0.15625,0.1875 -0.15625,0.34375 0,0.29688 0.23437,0.42188 0.42187,0.42188 0.21875,0 0.42188,-0.14063 0.42188,-0.42188 0,-0.32812 -0.29688,-0.59375 -0.73438,-0.59375 -0.46875,0 -0.96875,0.28125 -1.25,0.98438 h -0.0156 v -0.98438 l -1.32813,0.0937 v 0.34375 c 0.625,0 0.70313,0.0625 0.70313,0.51563 v 2.40625 c 0,0.40625 -0.0937,0.40625 -0.70313,0.40625 v 0.32812 c 0.0469,0 0.6875,-0.0312 1.0625,-0.0312 0.40625,0 0.8125,0.0156 1.20313,0.0312 v -0.32812 h -0.1875 c -0.6875,0 -0.6875,-0.10938 -0.6875,-0.42188 z m 6.45703,-0.35937 c 0,-0.5 0,-0.85938 -0.42188,-1.20313 -0.375,-0.3125 -0.82812,-0.45312 -1.375,-0.45312 -0.89062,0 -1.5,0.32812 -1.5,0.89062 0,0.29688 0.20313,0.45313 0.4375,0.45313 0.25,0 0.4375,-0.17188 0.4375,-0.42188 0,-0.17187 -0.0781,-0.35937 -0.32812,-0.4375 0.34375,-0.23437 0.875,-0.23437 0.9375,-0.23437 0.51562,0 1.07812,0.34375 1.07812,1.125 v 0.29687 c -0.5,0.0156 -1.125,0.0469 -1.79687,0.29688 -0.84375,0.29687 -1.09375,0.8125 -1.09375,1.23437 0,0.79688 0.96875,1.03125 1.625,1.03125 0.73437,0 1.17187,-0.42187 1.375,-0.78125 0.0312,0.375 0.28125,0.73438 0.71875,0.73438 0.0156,0 0.92187,0 0.92187,-0.89063 v -0.5 h -0.32812 v 0.5 c 0,0.0937 0,0.53125 -0.34375,0.53125 -0.34375,0 -0.34375,-0.4375 -0.34375,-0.54687 z m -0.73438,1.17187 c 0,0.89063 -0.78125,1.14063 -1.1875,1.14063 -0.48437,0 -0.92187,-0.3125 -0.92187,-0.76563 0,-0.51562 0.4375,-1.23437 2.10937,-1.29687 z m 5.1875,-5.03125 v 0.32813 c 0.625,0 0.6875,0.0625 0.6875,0.51562 v 1.9375 c -0.34375,-0.34375 -0.78125,-0.53125 -1.29687,-0.53125 -1.23438,0 -2.28125,0.92188 -2.28125,2.09375 0,1.15625 0.98437,2.09375 2.17187,2.09375 0.76563,0 1.21875,-0.40625 1.375,-0.57812 v 0.57812 l 1.4375,-0.0937 v -0.32812 c -0.625,0 -0.70312,-0.0781 -0.70312,-0.53125 v -5.59375 z m 0.65625,5.375 c -0.23437,0.42188 -0.71875,0.79688 -1.3125,0.79688 -0.53125,0 -0.90625,-0.29688 -1.07812,-0.57813 -0.1875,-0.26562 -0.29688,-0.64062 -0.29688,-1.23437 0,-0.21875 0,-0.92188 0.375,-1.35938 0.375,-0.40625 0.82813,-0.5 1.09375,-0.5 0.45313,0 0.84375,0.20313 1.10938,0.54688 0.10937,0.14062 0.10937,0.15625 0.10937,0.32812 z m 0,0"
         style="fill:#000000;fill-opacity:1;fill-rule:nonzero;stroke:none;stroke-width:1.33333"
         aria-label="grad" /><path
         id="path61"
         d="m -553.95737,154.49765 h 36.8172"
         style="fill:none;stroke:#000000;stroke-width:0.531307;stroke-linecap:butt;stroke-linejoin:miter;stroke-miterlimit:10;stroke-dasharray:none;stroke-opacity:1" /><path
         id="path62"
         d="m -519.6375,151.30961 c 0.50533,1.91304 1.63067,2.81617 2.764,3.18804 -1.13333,0.37188 -2.25867,1.275 -2.764,3.18803"
         style="fill:none;stroke:#000000;stroke-width:0.531307;stroke-linecap:round;stroke-linejoin:round;stroke-miterlimit:10;stroke-dasharray:none;stroke-opacity:1" /><path
         id="path63"
         d="m -540.5469,147.66796 c -0.15625,0.0625 -0.25,0.21875 -0.25,0.40625 0,0.25 0.17188,0.4375 0.4375,0.4375 0.25,0 0.4375,-0.15625 0.4375,-0.45312 0,-0.82813 -1.28125,-0.82813 -1.54687,-0.82813 -1.39063,0 -2.26563,1.0625 -2.26563,2.125 0,1.17188 1,2.10938 2.21875,2.10938 1.39063,0 1.70313,-1.09375 1.70313,-1.20313 0,-0.125 -0.10938,-0.125 -0.15625,-0.125 -0.10938,0 -0.125,0.0312 -0.17188,0.17188 -0.20312,0.5625 -0.70312,0.85937 -1.26562,0.85937 -0.64063,0 -1.46875,-0.46875 -1.46875,-1.8125 0,-1.1875 0.5625,-1.82812 1.4375,-1.82812 0.10937,0 0.5625,0 0.89062,0.14062 z m 4.54688,-0.29687 v 0.34375 c 0.625,0 0.6875,0.0625 0.6875,0.51562 v 1.59375 c 0,0.8125 -0.51563,1.375 -1.23438,1.375 -0.84375,0 -0.875,-0.39062 -0.875,-0.875 v -3.04687 l -1.4375,0.0937 v 0.34375 c 0.70313,0 0.70313,0.0156 0.70313,0.84375 v 1.40625 c 0,0.64062 0,1.5 1.54687,1.5 0.20313,0 0.89063,0 1.32813,-0.78125 h 0.0156 v 0.78125 l 1.39063,-0.0937 v -0.32813 c -0.625,0 -0.70313,-0.0781 -0.70313,-0.53125 v -3.23437 z m 4.40625,1.875 c 0,-0.78125 0.375,-1.71875 1.25,-1.71875 -0.0781,0.0625 -0.15625,0.1875 -0.15625,0.34375 0,0.29687 0.23437,0.42187 0.42187,0.42187 0.21875,0 0.42188,-0.14062 0.42188,-0.42187 0,-0.32813 -0.29688,-0.59375 -0.73438,-0.59375 -0.46875,0 -0.96875,0.28125 -1.25,0.98437 h -0.0156 v -0.98437 l -1.32813,0.0937 v 0.34375 c 0.625,0 0.70313,0.0625 0.70313,0.51562 v 2.40625 c 0,0.40625 -0.0937,0.40625 -0.70313,0.40625 v 0.32813 c 0.0469,0 0.6875,-0.0312 1.0625,-0.0312 0.40625,0 0.8125,0.0156 1.20313,0.0312 v -0.32813 h -0.1875 c -0.6875,0 -0.6875,-0.10937 -0.6875,-0.42187 z m 4.23828,-4.32813 -1.40625,0.10938 v 0.32812 c 0.625,0 0.70312,0.0625 0.70312,0.51563 v 4.76562 c 0,0.40625 -0.0937,0.40625 -0.70312,0.40625 v 0.32813 c 0.0312,0 0.67188,-0.0312 1.04688,-0.0312 0.35937,0 0.70312,0 1.04687,0.0312 v -0.32813 c -0.59375,0 -0.6875,0 -0.6875,-0.40625 z m 0,0"
         style="fill:#000000;fill-opacity:1;fill-rule:nonzero;stroke:none;stroke-width:1.33333"
         aria-label="curl" /><path
         id="path64"
         d="m -474.23484,154.49765 h 33.81734"
         style="fill:none;stroke:#000000;stroke-width:0.531307;stroke-linecap:butt;stroke-linejoin:miter;stroke-miterlimit:10;stroke-dasharray:none;stroke-opacity:1" /><path
         id="path65"
         d="m -442.9135,151.30961 c 0.504,1.91304 1.62933,2.81617 2.76133,3.18804 -1.132,0.37188 -2.25733,1.275 -2.76133,3.18803"
         style="fill:none;stroke:#000000;stroke-width:0.531307;stroke-linecap:round;stroke-linejoin:round;stroke-miterlimit:10;stroke-dasharray:none;stroke-opacity:1" /><path
         id="path66"
         d="m -461.04689,145.02734 v 0.32812 c 0.625,0 0.6875,0.0625 0.6875,0.51563 v 1.9375 c -0.34375,-0.34375 -0.78125,-0.53125 -1.29688,-0.53125 -1.23437,0 -2.28125,0.92187 -2.28125,2.09375 0,1.15625 0.98438,2.09375 2.17188,2.09375 0.76562,0 1.21875,-0.40625 1.375,-0.57813 v 0.57813 l 1.4375,-0.0937 v -0.32813 c -0.625,0 -0.70313,-0.0781 -0.70313,-0.53125 v -5.59375 z m 0.65625,5.375 c -0.23438,0.42187 -0.71875,0.79687 -1.3125,0.79687 -0.53125,0 -0.90625,-0.29687 -1.07813,-0.57812 -0.1875,-0.26563 -0.29687,-0.64063 -0.29687,-1.23438 0,-0.21875 0,-0.92187 0.375,-1.35937 0.375,-0.40625 0.82812,-0.5 1.09375,-0.5 0.45312,0 0.84375,0.20312 1.10937,0.54687 0.10938,0.14063 0.10938,0.15625 0.10938,0.32813 z m 3.92187,-4.76563 c 0,-0.26562 -0.23437,-0.53125 -0.54687,-0.53125 -0.28125,0 -0.53125,0.21875 -0.53125,0.53125 0,0.32813 0.26562,0.53125 0.53125,0.53125 0.29687,0 0.54687,-0.21875 0.54687,-0.53125 z m -1.42187,1.73438 v 0.34375 c 0.59375,0 0.67187,0.0469 0.67187,0.5 v 2.42187 c 0,0.40625 -0.0937,0.40625 -0.70312,0.40625 v 0.32813 c 0.0312,0 0.67187,-0.0312 1.04687,-0.0312 0.32813,0 0.65625,0 0.98438,0.0312 v -0.32813 c -0.53125,0 -0.625,0 -0.625,-0.39062 v -3.375 z m 6.89843,0.90625 c 0.26563,-0.5625 0.71875,-0.57813 0.875,-0.57813 v -0.32812 c -0.23437,0.0156 -0.46875,0.0312 -0.70312,0.0312 -0.25,0 -0.59375,-0.0156 -0.84375,-0.0312 v 0.32812 c 0.39062,0.0156 0.39062,0.32813 0.39062,0.35938 0,0.0469 -0.0156,0.14062 -0.0781,0.26562 l -1.04688,2.29688 -1.15625,-2.53125 c 0,-0.0156 -0.0625,-0.10938 -0.0625,-0.17188 0,-0.21875 0.3125,-0.21875 0.48438,-0.21875 v -0.32812 c -0.0312,0 -0.6875,0.0312 -1.0625,0.0312 -0.28125,0 -0.64063,-0.0156 -0.92188,-0.0312 v 0.32812 c 0.51563,0 0.625,0.0156 0.76563,0.32813 l 1.46875,3.23437 c 0.0469,0.125 0.10937,0.20313 0.26562,0.20313 0.17188,0 0.21875,-0.0781 0.26563,-0.1875 z m 0,0"
         style="fill:#000000;fill-opacity:1;fill-rule:nonzero;stroke:none;stroke-width:1.33333"
         aria-label="div" /></g></g></svg>
